<svg xmlns="http://www.w3.org/2000/svg" pointer-events="none" class="leaflet-zoom-animated" width="944" height="482" style="transform: translate3d(-79px, -40px, 0px);" viewBox="-79 -40 944 482"><g><path class="leaflet-interactive" stroke="#201920" stroke-opacity="1" stroke-width="2" stroke-linecap="round" stroke-linejoin="round" fill="none" d="M222 174L220 170L223 167L222 166L226 162L228 162L228 160L229 161L232 159L233 162L237 162L240 156L245 157L245 155L246 156L252 151L259 148L259 141L262 140L259 128L256 127L261 124L262 125L266 123L272 123L270 119L275 107L280 110L289 109L289 99L296 95L296 91L302 91L301 94L303 94L303 96L305 98L306 97L307 100L314 102L317 105L320 112L318 122L321 125L322 124L327 126L335 126L342 132L345 131L344 132L350 144L376 144L392 151L396 150L397 152L412 146L424 146L429 144L439 135L436 132L437 127L439 125L448 128L455 122L458 123L461 121L465 115L469 115L475 111L479 111L478 112L479 111L481 113L484 112L483 107L477 101L474 100L470 104L468 102L464 102L462 104L459 100L461 99L466 85L472 88L476 84L481 83L481 77L485 69L489 65L489 61L485 59L490 53L491 54L498 51L506 51L512 55L515 54L519 58L521 62L520 63L522 65L521 66L524 71L523 72L527 78L526 81L528 81L527 84L529 87L534 87L542 93L544 93L546 97L545 100L548 104L552 104L564 98L570 97L568 99L568 105L565 106L566 108L564 116L561 119L559 125L558 126L552 123L548 127L548 142L546 142L544 144L545 145L541 141L540 146L538 146L535 149L531 149L532 152L530 154L525 153L526 152L523 151L522 154L517 159L515 159L516 160L515 159L510 163M250 221L248 217L249 216L251 218L253 216L253 214L250 211L250 207L252 205L247 203L247 197L241 197L238 194L236 194L234 192L234 188L226 186L226 184L228 185M410 285L408 283L409 280L404 279L401 276L393 282L391 280L388 282L386 280L384 280L384 282L380 282L380 290L378 290L377 286L373 288L371 284L367 284L366 283L368 279L365 278L363 274L363 272L365 272L357 272L358 265L362 261L364 261L364 251L362 249L361 250L360 245L357 244L354 249L350 245L346 245L334 254L326 254L325 250L323 250L322 247L319 248L320 247L311 246L309 252L307 250L308 247L297 248L295 246L292 247L293 246L291 248L290 245L286 245L287 243L282 242L280 238L277 239L267 231L265 231L264 234L255 227L251 227L250 221M416 287L410 285M418 379L418 373M424 320L427 326M430 343L428 349M438 394L444 392M459 372L463 367M476 351L479 344M479 321L479 328M485 303L482 309M496 287L491 292M499 276L501 268" id="国界"/><path class="leaflet-interactive" stroke="#201920" stroke-opacity="1" stroke-width="2" stroke-linecap="butt" stroke-linejoin="round" stroke-dasharray="4,4" stroke-dashoffset="4" fill="none" d="M228 185L230 183L228 181L228 175L222 174" id="争议"/><path class="leaflet-interactive" stroke="gray" stroke-opacity="1" stroke-width="1" stroke-linecap="round" stroke-linejoin="round" stroke-dasharray="8,4,4,4" fill="none" d="M448 283L448 283M452 281L450 283L452 284L452 281" id="港澳"/><path class="leaflet-interactive" stroke="#4190da" stroke-opacity="1" stroke-width="1" stroke-linecap="round" stroke-linejoin="round" fill="none" d="M451 282L449 280L449 282L446 285L445 284L445 286L439 286L437 288L429 290L431 294L429 296L427 296L426 287L416 287M430 290L430 290M430 290L431 291L429 291L430 290M448 283L448 283M451 282L451 282M451 282L451 282M451 282L451 282M484 255L482 259L482 263L484 263L480 263L481 264L479 264L479 266L476 269L474 269L474 271L470 275L468 275L463 280L460 279L460 281L455 280L453 281L454 282L452 282L453 283L451 282M484 255L484 255M495 240L494 239L494 245L492 247L491 246L491 248L488 250L489 251L484 255M493 188L490 189L488 193L485 192L486 193L481 198L480 201L487 206L490 213L490 217L492 217L493 220L495 220L496 223L490 222L492 224M492 224L495 225L497 230L491 230L496 235L496 239M493 188L493 188M493 188L493 188M498 169L491 174L491 172L494 171L492 167L497 162L495 158L491 158L488 161L488 163L482 165L481 168L478 171L479 170L476 171L477 172L473 170L471 174L471 176L473 176L476 179L479 178L481 180L479 182L480 185L484 185L484 183L488 180L490 180L493 183L496 182L500 184L499 187L496 186L493 188M493 188L494 187L493 188M495 240L495 240M495 240L495 240M495 240L495 240M496 239L495 240M496 239L496 239M497 234L497 234M497 234L497 234M497 234L497 234M498 234L497 234M497 234L496 233L498 234M498 234L498 234M498 232L498 232M498 232L498 232M498 169L498 169M510 163L507 166L503 166L498 169M499 229L499 229M499 229L499 229M500 229L500 229M421 287L421 287M423 291L423 291M425 297L425 297M425 371L428 370L425 371M425 308L420 305L420 301L424 297L425 298L431 296L434 298L431 304L425 308M427 368L427 368M430 293L430 293M430 290L430 290M430 368L431 369L430 368M430 367L431 366L430 367M431 290L431 290M431 295L431 295M431 367L431 367M431 291L431 291M435 322L435 322M436 314L436 314M436 364L436 364M436 318L436 318M436 360L436 360M437 370L437 370M437 368L437 368M437 318L437 318M437 318L437 318M437 368L437 368M437 319L437 319M437 363L438 364L437 363M437 317L437 317M437 369L437 369M437 317L437 317M438 320L437 319L438 320M438 318L438 318M438 320L438 320M439 367L439 367M439 319L439 319M439 391L439 391M440 363L441 362L440 363M440 362L440 362M440 391L440 391M440 316L440 316M440 323L441 322L440 323M440 315L440 315M441 362L441 362M441 391L441 391M441 362L441 362M441 381L441 381M441 315L441 315M441 316L441 316M441 319L441 319M442 287L442 287M442 380L442 380M442 321L443 320L442 321M442 318L442 318M442 358L442 358M442 381L442 381M442 380L442 380M442 362L443 363L442 362M442 379L442 379M442 384L442 384M442 287L442 287M442 381L443 382L442 381M443 382L443 382M443 318L443 318M443 384L443 384M443 286L442 287L443 286M443 319L443 319M443 317L443 317M444 287L443 286L444 287M444 362L444 362M444 287L444 287M444 316L444 316M444 368L444 368M444 358L444 358M444 358L444 358M444 385L445 384L444 385M445 365L445 365M445 300L445 300M445 358L445 358M445 286L445 286M446 285L446 285M446 286L446 286M446 285L446 285M446 377L446 377M446 367L446 367M446 367L447 366L446 367M448 284L448 284M448 354L448 354M448 373L448 373M448 362L449 361L448 362M449 360L449 360M449 285L449 285M449 323L449 323M449 285L449 285M449 285L449 285M449 285L449 285M449 369L450 370L449 369M449 371L449 371M450 282L450 282M450 284L450 284M450 302L450 302M450 283L450 283M450 356L450 356M450 324L450 324M450 323L450 323M450 367L450 367M450 370L454 368L450 370M450 362L450 362M450 322L450 322M450 362L451 363L450 362M450 362L451 363L450 362M450 324L450 324M451 356L451 356M451 351L451 351M451 367L451 367M451 321L451 321M451 283L451 283M451 285L451 285M451 359L452 360L451 359M452 283L452 283M452 285L452 285M452 363L452 363M452 321L452 321M452 285L452 285M452 324L452 324M452 354L452 354M452 357L452 357M452 284L452 284M452 323L452 323M452 357L452 357M452 348L452 348M452 281L452 281M452 350L452 350M452 283L452 283M453 355L453 355M453 352L453 352M453 347L453 347M453 321L454 320L453 321M453 356L453 356M453 323L453 323M453 357L453 357M453 351L453 351M453 352L454 351L453 352M453 356L453 356M453 367L454 366L453 367M454 356L454 356M454 356L454 356M454 348L454 348M454 356L454 356M454 362L454 362M454 323L454 323M454 356L454 356M454 348L454 348M454 282L454 282M454 370L454 370M454 366L454 366M454 354L454 354M454 347L455 348L454 347M455 350L455 350M455 320L455 320M455 357L454 358L455 357M455 366L455 366M455 349L455 349M455 321L455 321M455 351L455 351M455 372L455 372M455 367L456 368L455 367M456 351L456 351M456 321L456 321M456 370L456 370M456 350L456 350M457 365L458 366L457 365M458 364L458 364M458 355L458 355M458 333L458 333M459 359L459 359M459 356L459 356M459 365L459 365M460 353L460 353M460 353L460 353M460 353L460 353M461 353L461 353M461 353L461 353M461 357L461 357M461 351L461 351M461 291L461 291M462 290L462 290M462 360L462 360M462 355L462 355M463 358L463 358M463 362L463 362M464 357L464 357M465 361L465 361M465 357L465 357M465 354L465 354M465 357L465 357M466 353L466 353M466 319L466 319M466 347L466 347M466 293L466 293M466 361L466 361M466 292L467 293L466 292M467 353L467 353M468 276L468 276M469 352L469 352M469 352L469 352M469 354L469 354M469 352L469 352M469 350L469 350M470 355L470 355M470 350L470 350M471 352L471 352M472 350L472 350M472 326L472 326M472 351L472 351M474 270L474 270M474 270L474 270M475 270L475 270M476 269L475 270L476 269M477 171L477 171M478 171L478 171M478 171L478 171M481 277L481 277M482 265L482 265M482 276L482 276M482 275L482 275M482 274L482 274M482 262L482 262M483 259L483 259M483 275L483 275M483 262L483 262M483 262L483 262M483 256L483 256M483 264L483 264M483 264L483 264M483 256L483 256M484 262L484 262M484 259L484 259M484 260L484 260M485 276L485 276M485 258L485 258M485 257L485 257M485 256L485 256M485 256L485 256M485 255L485 255M486 195L486 195M486 254L486 254M487 283L487 283M487 254L487 254M487 181L487 181M487 257L487 257M488 179L488 179M489 285L488 282L486 281L485 274L490 268L490 266L494 264L496 266L492 280L489 285M489 179L489 179M489 179L489 179M489 178L489 178M489 161L489 161M489 177L489 177M490 176L490 176M490 176L490 176M490 190L490 190M491 247L491 247M491 251L491 251M491 247L491 247M491 247L491 247M493 222L496 224L494 224L493 222M493 217L493 217M493 280L493 280M493 284L494 285L493 284M494 285L494 285M494 224L494 224M494 240L494 240M495 242L495 242M495 225L494 224L495 225M495 225L497 225L495 225M495 234L495 234M495 242L495 242M495 242L495 242M495 244L495 244M495 233L496 234L495 233M495 226L495 226M495 244L495 244M496 263L496 263M496 267L496 267M496 233L496 233M496 226L496 226M496 232L496 232M496 239L496 239M496 236L496 236M496 234L496 234M496 233L496 233M496 230L496 230M497 234L497 234M497 234L497 234M497 234L497 234M497 234L497 234M497 233L497 233M497 232L497 232M497 232L497 232M497 238L497 238M497 236L496 235L497 236M497 236L497 236M497 234L497 234M498 235L498 235M498 235L498 235M498 236L497 235L498 236M498 234L499 235L498 234M498 170L498 170M498 234L498 234M498 231L498 231M499 231L499 231M499 170L499 170M499 170L499 170M499 230L499 230M500 170L500 170M500 233L500 233M500 172L500 172M500 229L500 229M501 229L501 229M502 168L502 168M502 169L502 169M503 172L503 172M504 261L505 262L503 262L504 261M505 261L505 261M505 260L506 261L505 260M505 262L505 262M505 261L505 261M505 262L505 262M506 166L506 166M510 260L511 261L510 260" id="海洋"/><path class="leaflet-interactive" stroke="#747569" stroke-opacity="0.6" stroke-width="1" stroke-linecap="round" stroke-linejoin="round" fill="none" d="M312 193L310 191L299 190L293 192L289 196L286 195L281 198L274 197L274 195L266 199L260 197L257 200L257 202L255 204L251 204L252 205M358 217L356 217L356 219L353 220L354 221L352 221L352 223L350 221L350 223L347 223L345 219L344 220L344 218L340 216L336 218L325 215L323 213L317 213L313 209L314 208L312 208L312 193M328 171L315 175L315 177L317 177L317 181L321 184L321 186L318 187L318 189L320 189L320 193L314 191L314 193L312 193M381 210L380 211L380 209L379 210L375 206L383 206L384 205L382 201L384 197L387 196L386 197L388 193L385 186L386 185L382 181L377 180L372 175L372 177L369 176L364 171L360 173L355 170L353 172L354 175L352 175L352 177L349 178L347 176L341 176L339 173L337 174L331 170L328 171M350 144L348 146L349 150L347 150L344 153L344 151L342 151L335 159L331 160L327 170L328 171M395 183L390 180L390 176L395 172L393 168L388 171L383 170L383 172L379 174L376 171L376 169L368 165L372 162L371 158L369 157L364 160L361 160L361 157L357 154L359 152L355 143M366 239L365 229L363 226L364 225L362 223L361 218L358 217M381 210L380 213L377 212L378 215L376 217L372 217L371 214L369 216L366 213L364 213L362 207L359 206L356 209L358 211L356 215L358 217M360 246L364 245L363 242L365 242L366 239M401 249L400 246L396 248L395 243L393 243L393 245L390 246L391 249L387 251L388 258L385 257L381 259L375 247L373 249L371 247L372 246L370 242L368 242L367 245L366 244L366 239M402 215L400 217L397 216L395 214L395 210L391 208L390 209L388 205L386 205L386 207L383 208L385 210L382 213L381 210M414 180L408 176L411 171L409 169L404 173L403 181L395 183M395 183L397 183L397 185L398 184L401 187L401 195L402 194L407 199L407 195L410 194L410 192L407 189L409 187L408 186L412 185M401 249L401 251L396 250L391 253L392 256L397 257L395 261L398 264L397 268M397 268L397 270L398 269L401 272L402 271L406 273L406 275L402 277M425 260L422 261L422 263L421 262L416 265L414 265L411 262L411 264L405 268L402 266L397 268M407 244L405 242L403 244L407 247L405 249L401 249M412 185L412 187L420 191L420 197L416 199L415 198L414 201L409 200L407 204L409 204L407 208L408 209L405 210L405 214L402 215M419 219L416 220L413 217L412 218L410 216L407 217L405 215L402 215M424 244L422 246L418 242L418 240L415 241L415 239L413 239L413 241L411 241L408 244L408 242L407 244M407 244L407 242L401 238L401 236L404 235L402 233L404 231L406 233L409 232L409 234L411 233L414 230L413 229L417 227L419 219M412 185L414 180M434 169L434 167L431 170L429 168L429 170L427 170L426 173L422 176L423 179L421 179L421 181L418 182L414 180M419 219L425 223M425 223L428 224L429 227L424 231L421 230L418 235L420 235L422 237L421 238L423 238L423 240M423 240L424 244M450 240L448 236L445 238L444 235L442 237L438 234L437 235L433 233L430 236L427 235L423 240M425 260L424 252L421 253L425 249L424 244M439 268L437 268L436 265L434 267L433 266L436 261L435 258L433 258L434 257L429 260L425 260M433 212L425 212L427 214L426 215L429 216L425 218L425 223M427 288L426 288M427 288L426 287L436 279L436 275L439 272L439 268M427 296L428 296M428 296L430 296M430 203L430 187L432 183L431 178L433 176L433 172L435 170L434 169M430 203L431 207L434 210L433 212M430 203L439 200L439 198L444 199L448 197L449 191M430 295L431 295M458 225L451 222L449 218L439 218L433 212M434 213L434 213M451 159L448 162L442 162L439 165L439 167L434 169M439 268L440 265L444 267L446 263L450 263M459 192L456 193L449 191M449 191L448 188L451 181L448 174L451 171L453 171L454 168L453 165L450 164L453 162L451 159M463 235L459 235L455 237L456 238L452 238L450 240M450 263L452 259L450 259L450 251L448 251L448 249L452 245L450 240M450 263L455 264L451 268L452 269L456 269L458 267L460 269L461 266M480 154L479 155L474 152L475 149L472 144L468 146L466 150L460 150L457 153L454 148L450 154L451 159M463 203L463 205L465 205L466 208L463 209L459 207L460 210L458 210L456 214L457 217L461 217L462 220L458 225M463 235L461 231L462 228L458 225M473 177L470 180L466 180L463 184L462 183L462 185L458 189L459 192M463 203L459 203L459 201L455 199L462 193L458 195L459 192M461 266L463 260L466 257L465 254L469 252L468 249L476 245M469 275L467 273L467 269L461 266M474 238L469 235L467 237L465 233L465 235L463 235M464 203L463 203M481 200L480 199L474 205L473 202L469 204L467 200L464 201L464 203M483 226L479 226L475 220L478 217L479 218L480 215L479 214L475 216L474 212L473 213L474 210L464 203M470 163L470 159L468 159L465 156L465 158L464 157L465 158L463 158L463 160L460 161L461 162L459 166L461 168L467 167M471 174L468 175L466 173L467 167M467 167L467 167M467 167L469 167L469 164M469 164L466 165L467 167M469 275L469 276M470 163L469 164M470 276L470 277M470 163L472 165L470 165L472 168L473 167L473 170M474 238L478 236L478 232L480 232L481 229L482 230L483 226M474 238L473 239L476 242L476 245M487 253L487 251L483 251L483 249L481 251L478 250L478 246L476 245M480 154L480 148L482 146L485 151L493 145L494 146L496 144L503 143L506 139M484 164L482 160L478 158L480 154M490 227L488 229L483 226M489 253L489 253M489 176L491 176M496 223L491 222L492 223L490 227M492 229L490 229L490 227M492 229L493 229M504 110L502 112L498 106L501 103L503 103L503 101L505 101L509 96L509 98L511 98L511 94L512 91L515 90L514 85L518 79L519 74L515 69L513 69L514 70L511 72L503 72L500 68L501 63L497 61L495 63L492 60L495 55L493 53M494 229L494 229M495 229L496 229M496 229L497 228M498 228L499 228M500 228L500 228M549 138L544 137L544 133L536 137L533 134L533 130L531 130L530 133L527 130L528 129L524 127L525 126L523 124L520 125L517 122L509 122L507 119L507 115L503 116M503 116L502 113L505 112L504 110M503 116L500 119L501 120L499 118L494 119L497 122L497 130L499 132L503 130L502 131L506 139M504 110L503 109L504 110M504 110L504 110M504 110L504 110M506 139L507 138L510 141L510 143L512 141L516 149L515 152L517 154L517 158M404 197L404 197M425 255L425 255M444 235L444 235" id="省界"/><path class="leaflet-interactive" stroke="#3388ff" stroke-opacity="0" stroke-width="3" stroke-linecap="round" stroke-linejoin="round" fill="#eee" fill-opacity="0.5" fill-rule="evenodd" d="M470 160L471 159L467 159L466 156L464 158L465 159L460 161L461 162L459 166L461 168L465 168L467 166L466 165L470 163L470 160z" id="北京市"/><path class="leaflet-interactive" stroke="#3388ff" stroke-opacity="0" stroke-width="3" stroke-linecap="round" stroke-linejoin="round" fill="#eee" fill-opacity="0.5" fill-rule="evenodd" d="M472 169L473 168L470 165L472 165L470 163L468 165L469 166L466 168L466 174L471 175L471 173L473 172L472 169zM472 169L472 169z" id="天津市"/><path class="leaflet-interactive" stroke="#3388ff" stroke-opacity="0" stroke-width="3" stroke-linecap="round" stroke-linejoin="round" fill="#eee" fill-opacity="0.5" fill-rule="evenodd" d="M470 159L469 162L472 165L470 165L475 172L477 172L476 171L478 171L484 164L482 160L478 158L480 154L479 155L474 152L475 149L472 144L468 146L466 150L460 150L457 153L454 148L452 150L450 156L452 162L454 162L451 164L450 163L453 166L453 168L454 167L453 170L449 172L450 173L448 177L451 180L451 182L449 188L447 188L450 191L458 193L458 189L462 184L473 177L471 175L466 174L467 167L459 167L459 165L462 162L461 161L465 159L464 158L466 156L467 159L470 159zM469 164L466 165L468 167L469 164zM472 169L472 169zM478 171L478 171z" id="河北省"/><path class="leaflet-interactive" stroke="#3388ff" stroke-opacity="0" stroke-width="3" stroke-linecap="round" stroke-linejoin="round" fill="#eee" fill-opacity="0.5" fill-rule="evenodd" d="M430 203L439 200L439 198L443 199L448 196L448 188L451 183L448 175L450 173L449 172L452 171L454 167L453 168L453 166L450 163L451 164L453 162L452 159L450 161L449 160L448 162L442 162L439 165L439 167L437 167L433 172L434 173L431 178L431 196L429 203z" id="山西省"/><path class="leaflet-interactive" stroke="#3388ff" stroke-opacity="0" stroke-width="3" stroke-linecap="round" stroke-linejoin="round" fill="#eee" fill-opacity="0.5" fill-rule="evenodd" d="M355 143L359 152L357 153L361 160L364 160L365 158L366 159L369 157L371 158L372 162L369 165L376 169L378 173L382 174L383 172L381 171L387 171L393 168L394 169L395 171L390 176L390 180L392 180L394 183L404 180L404 174L409 169L411 171L408 177L413 178L417 182L419 182L422 179L423 175L429 169L432 170L434 167L434 169L436 169L436 167L438 167L441 162L443 163L449 161L451 159L450 154L454 148L457 153L460 150L465 150L467 146L472 145L474 147L473 148L475 150L475 154L480 155L482 147L485 150L485 152L489 147L499 143L503 143L506 140L503 137L505 137L504 132L502 130L499 132L497 130L497 123L496 120L494 120L495 117L497 119L501 119L503 115L502 112L503 113L505 111L503 109L504 110L502 112L498 106L501 103L503 103L503 101L505 101L509 96L509 98L511 98L511 94L512 91L515 90L514 85L518 79L519 74L515 69L513 69L514 70L511 72L503 72L500 68L501 63L497 61L495 63L492 60L495 55L491 53L485 58L485 60L489 60L489 66L485 68L484 73L480 79L481 82L472 88L466 85L462 93L461 99L459 100L462 104L464 102L468 102L470 104L472 101L476 101L483 107L484 111L482 113L478 111L470 113L470 115L467 114L462 121L458 123L455 122L448 128L442 125L438 126L436 130L439 135L437 138L435 138L425 146L412 146L397 152L397 150L394 151L383 148L381 145L365 145L355 143z" id="内蒙古自治区"/><path class="leaflet-interactive" stroke="#3388ff" stroke-opacity="0" stroke-width="3" stroke-linecap="round" stroke-linejoin="round" fill="#eee" fill-opacity="0.5" fill-rule="evenodd" d="M505 166L509 165L513 160L517 158L517 154L515 152L515 148L512 141L510 143L510 141L507 138L505 142L504 141L501 144L498 143L495 146L494 145L489 147L485 151L482 146L480 148L481 153L478 158L482 160L484 164L486 164L489 161L489 159L491 159L490 158L497 159L496 164L493 165L492 168L494 170L491 173L496 172L495 171L496 172L499 168L505 166zM500 170L499 169L500 170zM498 170L498 170zM500 170L500 170zM500 171L500 171zM502 168L502 168zM499 170L499 170zM489 161L489 161zM502 169L502 168zM503 172L503 171zM506 166L506 166z" id="辽宁省"/><path class="leaflet-interactive" stroke="#3388ff" stroke-opacity="0" stroke-width="3" stroke-linecap="round" stroke-linejoin="round" fill="#eee" fill-opacity="0.5" fill-rule="evenodd" d="M539 146L541 142L543 142L545 146L544 143L546 143L549 139L546 138L543 133L535 137L532 130L531 133L529 133L527 130L528 129L526 129L523 124L520 125L513 121L510 122L507 119L508 117L506 115L503 116L500 119L501 120L499 118L495 118L494 120L496 120L498 132L502 130L505 135L505 137L503 137L510 141L510 143L512 141L515 148L515 152L517 154L517 158L519 158L523 151L525 151L525 153L531 154L532 153L530 149L536 149L537 146L539 146z" id="吉林省"/><path class="leaflet-interactive" stroke="#3388ff" stroke-opacity="0" stroke-width="3" stroke-linecap="round" stroke-linejoin="round" fill="#eee" fill-opacity="0.5" fill-rule="evenodd" d="M505 116L506 115L508 117L508 121L513 121L519 125L522 124L525 126L524 127L528 129L527 130L530 133L530 131L533 130L535 137L543 133L544 136L548 138L549 133L547 127L553 123L558 126L559 125L561 119L564 116L566 108L565 107L569 103L567 101L571 97L567 97L555 103L548 104L545 100L546 97L544 93L542 93L538 88L537 89L535 87L532 88L528 86L528 82L526 80L527 79L524 74L524 70L522 68L522 64L519 58L515 54L512 55L507 51L498 51L494 53L495 56L491 60L494 61L494 63L498 61L500 63L502 72L511 72L514 69L517 71L519 75L514 84L515 89L510 96L511 99L510 100L509 97L498 106L502 112L504 110L503 109L505 111L503 113L502 112L502 114L505 116z" id="黑龙江省"/><path class="leaflet-interactive" stroke="#3388ff" stroke-opacity="0" stroke-width="3" stroke-linecap="round" stroke-linejoin="round" fill="#eee" fill-opacity="0.5" fill-rule="evenodd" d="M490 227L491 229L496 229L496 227L493 224L491 224L490 227zM496 223L491 222L493 224L496 224zM495 225L494 224L495 225zM495 225L497 226L495 225zM494 224L494 224zM496 226L496 226zM495 226L496 226z" id="上海市"/><path class="leaflet-interactive" stroke="#3388ff" stroke-opacity="0" stroke-width="3" stroke-linecap="round" stroke-linejoin="round" fill="#eee" fill-opacity="0.5" fill-rule="evenodd" d="M469 203L466 200L464 202L474 210L473 213L474 212L476 216L478 216L478 214L480 216L479 218L478 217L476 219L479 226L480 225L488 229L491 226L491 222L496 223L495 220L493 220L493 218L490 217L490 213L487 206L483 204L480 201L480 199L474 205L473 202L471 204L469 203z" id="江苏省"/><path class="leaflet-interactive" stroke="#3388ff" stroke-opacity="0" stroke-width="3" stroke-linecap="round" stroke-linejoin="round" fill="#eee" fill-opacity="0.5" fill-rule="evenodd" d="M476 245L478 245L478 250L481 251L483 249L483 251L487 251L487 253L489 248L491 248L490 247L494 245L494 239L496 239L496 235L491 230L492 229L490 227L488 229L483 226L482 230L481 229L481 231L478 232L478 236L474 239L476 245zM497 234L498 233L496 233L497 234zM497 233L497 233zM497 236L497 236zM498 229L499 229zM497 232L497 232zM498 232L498 232zM496 239L496 239zM498 235L499 234L498 235zM498 231L498 231zM495 242L495 242zM498 235L498 235zM495 240L495 240zM492 249L492 249zM496 229L497 230L496 229zM495 244L495 244zM497 236L497 236zM499 234L499 234zM499 230L499 230zM495 244L495 244zM496 233L496 233zM498 234L498 234zM495 234L495 234zM491 250L491 250zM496 239L496 239zM496 236L496 236zM496 233L496 233zM496 232L496 232zM497 234L497 234zM498 236L497 236zM491 248L491 248zM500 233L500 233zM498 232L498 232zM498 235L498 235zM500 229L500 229zM491 247L491 247zM491 247L491 247zM499 234L499 234zM501 229L501 229zM497 234L497 234zM496 234L496 234zM491 247L491 247zM499 234L499 234zM497 234L497 234z" id="浙江省"/><path class="leaflet-interactive" stroke="#3388ff" stroke-opacity="0" stroke-width="3" stroke-linecap="round" stroke-linejoin="round" fill="#eee" fill-opacity="0.5" fill-rule="evenodd" d="M465 207L466 208L463 209L461 207L459 208L460 209L458 213L456 213L456 215L459 218L460 217L462 220L458 224L462 228L461 231L463 235L465 235L465 233L467 237L469 234L475 238L478 235L478 233L481 232L483 227L481 225L478 226L478 224L475 221L477 217L480 216L478 214L478 216L476 216L475 213L473 213L474 210L465 203L463 203L465 207zM478 224L478 224zM466 236L466 236zM459 218L459 218z" id="安徽省"/><path class="leaflet-interactive" stroke="#3388ff" stroke-opacity="0" stroke-width="3" stroke-linecap="round" stroke-linejoin="round" fill="#eee" fill-opacity="0.5" fill-rule="evenodd" d="M479 266L478 265L480 265L480 263L484 263L482 263L484 258L483 256L485 256L484 257L487 252L482 249L480 251L478 249L478 245L476 245L468 249L469 252L465 255L465 259L462 262L461 267L465 269L466 268L467 273L469 275L474 271L474 269L477 269L477 267L479 266zM476 269L475 270L476 269zM482 265L482 265zM482 262L482 262zM485 259L484 258zM475 270L475 270zM484 255L484 255zM474 269L474 269zM484 259L484 259zM483 259L482 259zM485 257L485 256zM483 262L483 262zM483 256L484 256zM485 256L485 256zM487 254L486 254zM486 255L486 255zM483 256L483 256z" id="福建省"/><path class="leaflet-interactive" stroke="#3388ff" stroke-opacity="0" stroke-width="3" stroke-linecap="round" stroke-linejoin="round" fill="#eee" fill-opacity="0.5" fill-rule="evenodd" d="M474 238L469 235L467 237L465 233L465 235L459 235L455 237L456 238L452 238L450 240L452 244L448 250L450 252L450 258L452 258L450 263L455 264L451 268L452 269L456 269L458 267L460 269L461 268L463 260L465 259L465 255L468 252L468 250L476 245L473 239L474 238z" id="江西省"/><path class="leaflet-interactive" stroke="#3388ff" stroke-opacity="0" stroke-width="3" stroke-linecap="round" stroke-linejoin="round" fill="#eee" fill-opacity="0.5" fill-rule="evenodd" d="M464 203L464 201L467 200L469 204L473 202L474 205L480 199L481 200L486 193L485 192L488 193L490 189L498 187L500 183L494 183L489 180L486 181L483 185L481 185L479 183L481 180L478 178L476 179L474 177L472 177L470 180L466 180L458 189L458 195L462 193L455 199L460 203L464 203zM489 179L489 180zM489 179L489 179zM490 190L490 190zM489 178L489 178zM490 176L490 176zM486 195L486 195zM488 179L488 179zM489 177L489 177zM493 182L493 182zM493 182L493 182zM493 182L493 182zM459 194L459 194z" id="山东省"/><path class="leaflet-interactive" stroke="#3388ff" stroke-opacity="0" stroke-width="3" stroke-linecap="round" stroke-linejoin="round" fill="#eee" fill-opacity="0.5" fill-rule="evenodd" d="M443 218L449 218L451 222L458 225L459 224L462 220L461 217L457 217L456 214L461 207L463 209L466 208L465 205L463 205L463 203L459 203L457 200L455 200L462 193L458 195L459 192L456 193L450 191L446 198L440 198L440 200L430 204L434 211L433 212L437 217L441 219L443 218zM449 219L449 219z" id="河南省"/><path class="leaflet-interactive" stroke="#3388ff" stroke-opacity="0" stroke-width="3" stroke-linecap="round" stroke-linejoin="round" fill="#eee" fill-opacity="0.5" fill-rule="evenodd" d="M434 213L425 212L427 214L426 215L429 216L425 218L425 222L429 226L429 228L427 228L424 231L421 230L419 232L419 236L420 235L422 237L421 238L423 238L423 240L425 236L431 236L432 233L441 237L445 235L444 236L446 238L448 235L449 240L452 238L456 238L455 237L459 235L463 235L461 231L462 228L459 225L451 222L449 218L439 218L434 213zM423 230L423 230zM434 213L434 213zM443 218L443 218zM444 235L444 235z" id="湖北省"/><path class="leaflet-interactive" stroke="#3388ff" stroke-opacity="0" stroke-width="3" stroke-linecap="round" stroke-linejoin="round" fill="#eee" fill-opacity="0.5" fill-rule="evenodd" d="M439 268L440 265L444 267L446 263L450 263L452 259L450 259L451 256L450 251L448 251L448 249L452 245L448 239L448 235L445 238L444 235L442 237L438 234L437 235L431 233L430 236L428 235L424 237L423 242L425 250L423 250L421 253L425 253L424 258L427 261L428 258L428 260L430 260L433 257L435 261L436 260L433 266L434 267L436 265L437 268L439 267zM425 255L425 255z" id="湖南省"/><path class="leaflet-interactive" stroke="#3388ff" stroke-opacity="0" stroke-width="3" stroke-linecap="round" stroke-linejoin="round" fill="#eee" fill-opacity="0.5" fill-rule="evenodd" d="M448 283L449 280L451 282L460 279L463 280L468 275L468 271L466 269L467 268L461 266L460 269L458 267L456 269L452 269L451 268L455 264L454 263L446 263L444 267L440 265L438 271L439 272L436 275L436 279L426 287L427 296L431 294L429 290L432 288L433 289L445 284L446 285L448 283zM468 276L468 276zM444 286L443 287L444 286zM442 287L443 286L442 287zM452 285L452 284zM430 290L431 289L430 290zM442 287L442 287zM431 290L429 291L431 290zM449 285L449 285zM449 285L449 285zM446 286L446 285zM450 282L449 282zM452 285L452 285zM451 285L451 285zM466 292L467 292zM445 286L445 285zM430 293L430 293zM431 291L431 291zM431 295L431 295zM462 290L462 290zM461 291L462 291zM461 280L461 280zM461 280L461 280z" id="广东省"/><path class="leaflet-interactive" stroke="#3388ff" stroke-opacity="0" stroke-width="3" stroke-linecap="round" stroke-linejoin="round" fill="#eee" fill-opacity="0.5" fill-rule="evenodd" d="M425 260L422 261L422 263L421 262L416 265L413 265L412 262L411 265L410 264L406 266L406 268L402 266L396 268L400 270L400 272L406 272L406 274L403 277L405 279L410 280L408 282L409 285L416 288L426 288L428 285L430 285L430 283L432 283L432 281L436 279L436 275L439 272L439 268L437 268L436 265L434 267L433 266L436 261L434 257L429 260L425 260zM400 266L400 267zM423 291L423 291z" id="广西壮族自治区"/><path class="leaflet-interactive" stroke="#3388ff" stroke-opacity="0" stroke-width="3" stroke-linecap="round" stroke-linejoin="round" fill="#eee" fill-opacity="0.5" fill-rule="evenodd" d="M428 297L424 297L420 301L420 305L422 307L425 308L431 305L431 302L434 299L432 296L429 296zM440 391L440 391zM446 367L447 366zM439 391L439 391zM436 314L436 314zM472 326L472 325zM441 391L441 390zM438 320L438 319zM437 319L437 319zM450 370L454 368L450 369zM450 362L451 363L450 362zM450 363L450 363zM439 319L439 319zM438 318L438 318zM440 362L440 362zM449 371L450 371zM452 363L452 363zM440 315L441 315zM454 354L455 354zM461 357L461 357zM454 356L454 356zM449 369L450 369zM425 371L426 370L425 371zM463 362L464 362zM442 321L443 320L442 321zM442 362L443 362zM453 351L454 351zM441 319L442 319zM465 354L465 353zM441 315L441 315zM436 318L437 318zM459 356L459 356zM454 366L455 366zM453 367L454 366zM457 365L458 366L457 365zM450 367L450 367zM459 359L459 359zM465 361L465 361zM448 362L449 362zM454 350L455 350zM454 348L454 347zM456 351L456 351zM437 318L437 318zM450 362L450 363zM427 368L428 368zM466 347L466 347zM437 317L438 317zM442 318L442 318zM438 320L438 320zM450 356L450 355zM455 366L455 367zM465 357L465 357zM458 355L458 355zM467 353L467 353zM455 320L455 320zM462 360L462 360zM449 360L449 360zM454 370L455 370zM453 352L454 351zM472 351L472 351zM452 354L452 354zM454 347L455 347zM466 353L466 353zM430 367L431 366L430 367zM436 364L436 364zM458 364L458 364zM446 367L446 367zM451 350L451 350zM469 354L469 354zM452 321L452 320zM431 367L431 367zM459 365L459 364zM437 370L437 370zM437 363L438 364L437 363zM430 368L431 368zM441 362L441 362zM465 357L465 357zM439 367L439 367zM453 323L453 323zM456 350L456 350zM451 321L451 321zM462 355L462 355zM469 352L469 352zM455 372L455 372zM444 362L444 362zM437 369L437 369zM440 363L441 362zM442 380L442 380zM454 362L454 362zM455 367L456 367zM445 365L445 365zM448 373L448 373zM466 319L466 319zM470 355L470 355zM445 300L445 300zM453 321L453 320zM450 302L449 302zM443 384L443 384zM437 368L437 368zM441 362L441 362zM444 368L444 368zM442 381L443 381zM442 381L442 381zM458 333L458 333zM448 354L448 354zM450 324L450 324zM444 385L444 384zM442 384L443 384zM441 381L441 381zM440 316L440 316zM440 323L440 322zM443 382L443 382zM442 380L442 380zM446 377L446 377zM463 358L463 358zM456 370L456 370zM437 368L437 368zM450 322L450 322zM456 321L456 321zM466 361L466 361zM443 318L443 318zM435 297L435 297zM461 353L461 353zM469 352L469 352zM443 319L443 319zM461 353L461 353zM442 358L442 358zM454 323L454 323zM469 350L469 350zM472 350L472 350zM451 359L452 359zM455 357L455 358zM442 379L442 379z" id="海南省"/><path class="leaflet-interactive" stroke="#3388ff" stroke-opacity="0" stroke-width="3" stroke-linecap="round" stroke-linejoin="round" fill="#eee" fill-opacity="0.5" fill-rule="evenodd" d="M407 244L409 242L409 244L412 241L413 242L414 239L416 241L417 240L419 242L418 243L420 243L420 245L421 244L421 246L423 246L424 241L423 238L421 238L422 237L420 235L419 236L419 232L421 230L424 231L427 228L428 229L429 226L419 219L417 227L415 229L414 228L414 230L410 234L405 231L403 233L404 234L401 237L405 241L407 241L407 243zM423 230L423 230zM403 233L403 233zM423 230L423 230zM411 234L411 234z" id="重庆市"/><path class="leaflet-interactive" stroke="#3388ff" stroke-opacity="0" stroke-width="3" stroke-linecap="round" stroke-linejoin="round" fill="#eee" fill-opacity="0.5" fill-rule="evenodd" d="M378 252L377 253L379 257L383 259L388 257L387 252L394 243L396 243L395 244L397 248L399 248L400 246L401 249L405 249L407 247L404 246L403 243L407 243L407 241L405 241L401 237L405 231L410 234L414 230L413 229L417 227L419 219L416 220L413 217L407 217L405 215L402 215L400 217L397 216L395 214L395 210L391 208L390 209L388 205L384 207L385 210L382 213L381 210L380 213L377 212L378 215L376 217L372 217L371 214L369 216L366 213L364 213L362 207L359 206L356 209L358 211L356 215L362 220L362 222L365 225L363 225L366 234L366 244L367 245L369 241L372 245L371 246L373 248L375 247L375 249L378 252zM407 233L407 233zM411 233L411 233zM403 233L403 233z" id="四川省"/><path class="leaflet-interactive" stroke="#3388ff" stroke-opacity="0" stroke-width="3" stroke-linecap="round" stroke-linejoin="round" fill="#eee" fill-opacity="0.5" fill-rule="evenodd" d="M424 244L422 246L418 242L418 240L415 241L415 239L413 239L412 242L411 241L408 244L408 242L408 244L405 242L403 244L407 247L405 249L402 248L401 251L393 251L391 253L392 256L397 257L395 262L398 265L397 268L401 266L406 268L406 266L410 264L411 265L412 262L413 265L417 265L417 263L420 264L420 262L423 263L422 262L424 262L425 253L421 253L425 249L424 244zM425 254L425 254zM425 255L425 255z" id="贵州省"/><path class="leaflet-interactive" stroke="#3388ff" stroke-opacity="0" stroke-width="3" stroke-linecap="round" stroke-linejoin="round" fill="#eee" fill-opacity="0.5" fill-rule="evenodd" d="M401 249L400 246L398 248L396 247L396 243L392 244L393 245L391 245L391 248L387 252L388 257L382 259L379 256L376 249L373 248L369 242L367 244L368 245L366 245L366 239L365 242L363 242L364 245L363 246L361 244L360 247L361 250L362 249L364 251L364 261L362 261L358 266L357 272L365 272L363 272L363 274L365 278L366 277L365 278L368 279L366 283L371 284L373 288L377 286L377 288L381 290L381 282L385 280L388 282L390 280L398 280L399 277L403 277L406 274L406 272L400 272L401 271L396 268L398 266L396 262L398 257L396 255L392 255L394 251L401 251L401 249z" id="云南省"/><path class="leaflet-interactive" stroke="#3388ff" stroke-opacity="0" stroke-width="3" stroke-linecap="round" stroke-linejoin="round" fill="#eee" fill-opacity="0.5" fill-rule="evenodd" d="M312 193L310 191L300 190L292 192L291 195L285 195L280 198L276 198L273 195L271 195L267 199L263 197L259 198L255 204L251 204L252 205L249 207L253 215L252 218L250 218L250 216L248 218L248 220L251 223L251 227L257 228L257 230L264 234L265 231L267 231L277 239L280 238L282 242L287 243L286 244L292 248L292 246L294 248L294 246L298 248L308 247L307 250L309 252L310 248L313 245L323 248L323 250L325 250L327 254L334 254L346 245L350 245L354 249L357 244L361 246L361 244L363 246L363 242L365 242L366 239L366 234L361 218L357 217L355 219L356 220L352 222L353 223L349 221L350 223L347 223L345 219L344 220L344 218L340 216L336 218L315 211L313 209L314 208L312 208L312 193z" id="西藏自治区"/><path class="leaflet-interactive" stroke="#3388ff" stroke-opacity="0" stroke-width="3" stroke-linecap="round" stroke-linejoin="round" fill="#eee" fill-opacity="0.5" fill-rule="evenodd" d="M430 203L430 187L432 183L431 178L435 170L434 167L431 170L429 168L429 170L426 171L426 173L422 176L421 181L418 182L414 180L412 182L412 186L420 190L420 198L415 198L414 201L409 200L407 204L409 204L407 208L408 209L404 211L404 215L402 214L403 216L411 216L416 220L419 219L424 223L426 221L425 218L429 216L426 215L427 214L425 212L432 213L434 211L431 208L432 207L430 203zM434 211L434 211zM405 216L405 216z" id="陕西省"/><path class="leaflet-interactive" stroke="#3388ff" stroke-opacity="0" stroke-width="3" stroke-linecap="round" stroke-linejoin="round" fill="#eee" fill-opacity="0.5" fill-rule="evenodd" d="M408 195L407 198L404 197L404 195L401 194L401 187L398 184L397 185L397 183L390 180L390 176L395 172L393 168L388 171L381 171L382 174L376 172L376 170L373 167L368 165L372 162L372 158L369 157L364 160L361 160L361 157L357 154L359 152L355 143L350 144L348 146L349 148L347 151L343 151L335 159L331 160L327 170L331 170L337 174L338 173L340 176L346 176L349 178L352 177L352 175L354 175L353 172L355 170L360 173L364 171L369 176L371 177L371 175L378 180L383 181L382 182L385 185L388 194L386 194L387 197L386 196L382 202L384 205L383 206L379 206L376 204L375 205L379 210L380 209L380 211L382 211L382 213L385 210L383 207L387 205L389 209L390 208L395 210L395 214L397 216L402 216L402 214L403 215L405 213L403 211L408 210L408 200L415 201L416 198L420 198L420 190L409 185L407 189L410 192L410 194L408 195zM405 197L405 197zM387 191L387 191zM405 197L405 197zM408 195L408 195z" id="甘肃省"/><path class="leaflet-interactive" stroke="#3388ff" stroke-opacity="0" stroke-width="3" stroke-linecap="round" stroke-linejoin="round" fill="#eee" fill-opacity="0.5" fill-rule="evenodd" d="M387 191L385 186L386 185L382 181L377 180L375 177L371 175L372 177L370 176L365 171L362 171L360 173L354 170L354 174L350 178L347 176L341 176L339 173L337 174L332 172L332 170L315 175L315 177L317 177L317 181L321 185L318 188L320 190L319 193L314 191L314 193L311 194L313 194L311 198L311 201L313 201L312 208L314 208L313 209L318 213L322 213L336 218L340 216L344 218L343 219L345 219L347 223L349 223L349 221L353 223L352 222L356 220L355 219L357 217L356 214L358 212L356 208L359 206L363 209L364 213L366 213L369 216L371 214L372 217L376 217L378 215L377 212L379 213L381 212L381 210L380 211L380 209L379 210L375 206L384 205L382 201L384 197L387 196L387 191z" id="青海省"/><path class="leaflet-interactive" stroke="#3388ff" stroke-opacity="0" stroke-width="3" stroke-linecap="round" stroke-linejoin="round" fill="#eee" fill-opacity="0.5" fill-rule="evenodd" d="M412 185L414 179L408 177L411 172L410 169L408 169L405 172L403 181L395 183L397 183L397 185L398 184L401 187L401 193L407 199L407 195L410 194L410 192L407 189L409 187L408 186L412 185zM405 197L405 197zM405 197L405 197z" id="宁夏回族自治区"/><path class="leaflet-interactive" stroke="#3388ff" stroke-opacity="0" stroke-width="3" stroke-linecap="round" stroke-linejoin="round" fill="#eee" fill-opacity="0.5" fill-rule="evenodd" d="M350 144L344 131L343 132L331 125L321 125L318 122L320 117L320 111L315 103L309 101L303 96L303 94L301 94L302 91L296 91L296 95L294 97L290 97L289 99L289 109L280 110L275 107L270 119L272 123L266 123L257 126L259 128L259 132L262 139L259 142L261 142L258 144L259 147L255 151L254 150L244 157L241 156L237 160L237 162L233 162L232 160L228 161L225 164L224 163L220 170L223 175L226 174L228 176L227 177L229 183L226 184L226 186L230 186L234 189L235 194L242 197L246 197L247 202L252 205L251 204L255 204L260 197L266 199L272 195L274 197L281 198L285 195L291 195L292 192L300 190L319 193L320 190L318 188L321 185L317 181L317 177L315 177L315 175L327 172L331 160L336 158L342 151L344 151L344 153L349 149L349 144z" id="新疆维吾尔自治区"/><path class="leaflet-interactive" stroke="#3388ff" stroke-opacity="0" stroke-width="3" stroke-linecap="round" stroke-linejoin="round" fill="#eee" fill-opacity="0.5" fill-rule="evenodd" d="M487 282L488 285L490 285L490 281L493 278L496 266L494 264L488 269L485 274L486 281zM511 260L511 260zM504 261L504 261zM483 275L482 275zM506 260L506 260zM482 275L482 275zM482 276L482 276zM482 274L482 274zM496 262L497 262zM493 280L493 280zM493 284L494 284zM497 263L497 263zM481 277L482 277zM487 283L487 282z" id="台湾省"/><path class="leaflet-interactive" stroke="#3388ff" stroke-opacity="0" stroke-width="3" stroke-linecap="round" stroke-linejoin="round" fill="#eee" fill-opacity="0.5" fill-rule="evenodd" d="M451 282L450 283L453 282L451 282zM451 283L451 283zM452 282L452 282zM452 282L452 282zM452 282L452 282zM452 283L452 283zM452 282L452 282zM453 283L453 283zM452 283L452 283z" id="香港特别行政区"/><path class="leaflet-interactive" stroke="#3388ff" stroke-opacity="0" stroke-width="3" stroke-linecap="round" stroke-linejoin="round" fill="#eee" fill-opacity="0.5" fill-rule="evenodd" d="M448 284L448 284zM448 283L448 283z" id="澳门特别行政区"/><path class="leaflet-interactive" stroke="#3388ff" stroke-opacity="0" stroke-width="3" stroke-linecap="round" stroke-linejoin="round" fill="#eee" fill-opacity="0.5" fill-rule="evenodd" d="M499 276L501 269L499 276zM491 292L496 287L495 286L491 292zM482 309L485 303L482 309zM479 326L479 321L479 326zM477 349L476 351L479 344L478 346zM459 372L463 367L459 372zM441 393L438 394L444 392L442 393zM418 378L418 373L418 378zM429 348L428 349L430 343L429 347zM427 325L424 320L426 324z" id="100000_JD"/></g></svg>