<?xml version="1.0" encoding="utf-8" standalone="yes"?>
<!DOCTYPE svg PUBLIC "-//W3C//DTD SVG 1.1//EN" "http://www.w3.org/Graphics/SVG/1.1/DTD/svg11.dtd">
<svg width="602" height="434" viewBox="0 0 602 434" style="fill:none;stroke:none;fill-rule:evenodd;clip-rule:evenodd;stroke-linecap:round;stroke-linejoin:round;stroke-miterlimit:1.5;" version="1.1" xmlns="http://www.w3.org/2000/svg" xmlns:xlink="http://www.w3.org/1999/xlink"><style id="fontImports">@import url("https://fonts.googleapis.com/css2?family=Roboto:wght@400;700&amp;display=block");</style><rect id="" x="0" y="0" width="602" height="434" style="fill: none;"></rect><g id="items" style="isolation: isolate"><g id="blend" style="mix-blend-mode: normal"><g id="g-root-tf_1lymv2kc9c6iy-fill" data-item-order="-259200" transform="translate(-9, -9)"></g><g id="g-root-4.cu_sy_mcygngc8txj7-fill" data-item-order="-92729" transform="translate(122.95700073242188, 207.75)"></g><g id="g-root-3.Exclude_sy_dhbgekc8tybw-fill" data-item-order="-92726" transform="translate(244.055908203125, 221)"></g><g id="g-root-2.right-bucket_sy_dhbgekc8tybx-fill" data-item-order="-92722" transform="translate(339, 171)"></g><g id="g-root-1.left-bucket_sy_91hya4c8tz46-fill" data-item-order="-92718" transform="translate(15, 171)"></g><g id="g-root-ufo_1upwjpoc956oe-fill" data-item-order="0" transform="translate(27, 39)"></g><g id="g-root-tx__18lxej0c9c5xo-fill" data-item-order="0" transform="translate(87, 51)"><g id="tx__18lxej0c9c5xo-fill" stroke="none" fill="#484848"><g><text style="font: 20px Roboto, sans-serif; white-space: pre;" font-size="20px" font-family="Roboto, sans-serif"><tspan x="12" y="34" dominant-baseline="ideographic">担忧宇宙暴露</tspan></text></g></g></g><g id="g-root-1_1q87mbwc99de1-fill" data-item-order="0" transform="translate(351, 39)"></g><g id="g-root-tx__vagw5oc9c7im-fill" data-item-order="0" transform="translate(411, 51)"><g id="tx__vagw5oc9c7im-fill" stroke="none" fill="#484848"><g><text style="font: 20px Roboto, sans-serif; white-space: pre;" font-size="20px" font-family="Roboto, sans-serif"><tspan x="12" y="34" dominant-baseline="ideographic">具有城府的意图</tspan></text></g></g></g><g id="g-root-1_91hya4c8tz47-fill" data-item-order="0" transform="translate(27, 111)"></g><g id="g-root-tx__1hgxxosc9c8ar-fill" data-item-order="0" transform="translate(87, 123)"><g id="tx__1hgxxosc9c8ar-fill" stroke="none" fill="#484848"><g><text style="font: 20px Roboto, sans-serif; white-space: pre;" font-size="20px" font-family="Roboto, sans-serif"><tspan x="12" y="34" dominant-baseline="ideographic">高效的无损通信</tspan></text></g></g></g><g id="g-root-1_1qf2ua4c956vb-fill" data-item-order="0" transform="translate(351, 111)"></g><g id="g-root-tx__1463wekc9c6px-fill" data-item-order="0" transform="translate(411, 111)"><g id="tx__1463wekc9c6px-fill" stroke="none" fill="#484848"><g><text style="font: 20px Roboto, sans-serif; white-space: pre;" font-size="20px" font-family="Roboto, sans-serif"><tspan x="12" y="46" dominant-baseline="ideographic">战略性的信息隐藏</tspan></text></g></g></g><g id="g-root-tx__hzmuvgc9c5xr-fill" data-item-order="0" transform="translate(93, 279)"><g id="tx__hzmuvgc9c5xr-fill" stroke="none" fill="#484848"><g><text style="font: 20px Roboto, sans-serif; white-space: pre;" font-size="20px" font-family="Roboto, sans-serif"><tspan x="16" y="34" dominant-baseline="ideographic">三体人</tspan></text></g></g></g><g id="g-root-tx__djtcr0c9c6q0-fill" data-item-order="0" transform="translate(429, 279)"><g id="tx__djtcr0c9c6q0-fill" stroke="none" fill="#484848"><g><text style="font: 20px Roboto, sans-serif; white-space: pre;" font-size="20px" font-family="Roboto, sans-serif"><tspan x="14" y="34" dominant-baseline="ideographic">人类</tspan></text></g></g></g><g id="g-root-tx__93zumkc9c7i9-fill" data-item-order="0" transform="translate(171, 351)"><g id="tx__93zumkc9c7i9-fill" stroke="none" fill="#484848"><g><text style="font: 20px Roboto, sans-serif; white-space: pre;" font-size="20px" font-family="Roboto, sans-serif"><tspan x="33.03" y="46" dominant-baseline="ideographic">高效通信 vs 战略性</tspan></text></g></g></g><g id="g-root-tf_1lymv2kc9c6iy-stroke" data-item-order="-259200" transform="translate(-9, -9)"></g><g id="g-root-4.cu_sy_mcygngc8txj7-stroke" data-item-order="-92729" transform="translate(122.95700073242188, 207.75)"><g id="4.cu_sy_mcygngc8txj7-stroke" fill="none" stroke-linecap="round" stroke-linejoin="round" stroke-miterlimit="4" stroke="#484848" stroke-width="2"><g><path d="M 340.042999 45.25C 343.356999 45.25 346.042999 42.564 346.042999 39.25C 346.042999 35.936 343.356999 33.25 340.042999 33.25C 336.728999 33.25 334.042999 35.936 334.042999 39.25C 334.042999 42.564 336.728999 45.25 340.042999 45.25ZM 16.021999 45.25C 19.346999 45.25 22.042999 42.564 22.042999 39.25C 22.042999 35.936 19.346999 33.25 16.021999 33.25C 12.695999 33.25 9.999999 35.936 9.999999 39.25C 9.999999 42.564 12.695999 45.25 16.021999 45.25ZM 340.042999 33.25L 340.042999 10M 16.042999 10.25L 16.042999 33.25M 334.057999 39.275L 195.042999 39.275M 161.042999 39.275L 22.042999 39.275"></path></g></g></g><g id="g-root-3.Exclude_sy_dhbgekc8tybw-stroke" data-item-order="-92726" transform="translate(244.055908203125, 221)"><g id="3.Exclude_sy_dhbgekc8tybw-stroke" fill="none" stroke-linecap="round" stroke-linejoin="round" stroke-miterlimit="4" stroke="#484848" stroke-width="2"><g><path d="M 56.944107 10C 49.471107 10 43.195107 15.122 41.436107 22.047L 10.134107 124.12C 9.542107 126.049 10.984107 128 13.002107 128L 100.886107 128C 102.903107 128 104.346107 126.049 103.754107 124.12L 72.454107 22.054C 70.696107 15.126 64.419107 10 56.944107 10ZM 56.944107 33C 60.810107 33 63.944107 29.866 63.944107 26C 63.944107 22.134 60.810107 19 56.944107 19C 53.078107 19 49.944107 22.134 49.944107 26C 49.944107 29.866 53.078107 33 56.944107 33Z"></path></g></g></g><g id="g-root-2.right-bucket_sy_dhbgekc8tybx-stroke" data-item-order="-92722" transform="translate(339, 171)"><g id="2.right-bucket_sy_dhbgekc8tybx-stroke" fill="none" stroke-linecap="round" stroke-linejoin="round" stroke-miterlimit="4" stroke="#4e88e7" stroke-width="2"><g><path d="M 11.081 15.729C 10.338 14.904 10 13.826 10 12.716L 10 12.716C 10 11.216 11.216 10 12.716 10L 235.284 10C 236.784 10 238 11.216 238 12.716L 238 12.716C 238 13.826 237.662 14.904 236.919 15.729C 231.551 21.692 204.717 46 124 46C 43.283 46 16.449 21.692 11.081 15.729Z"></path></g></g></g><g id="g-root-1.left-bucket_sy_91hya4c8tz46-stroke" data-item-order="-92718" transform="translate(15, 171)"><g id="1.left-bucket_sy_91hya4c8tz46-stroke" fill="none" stroke-linecap="round" stroke-linejoin="round" stroke-miterlimit="4" stroke="#e55753" stroke-width="2"><g><path d="M 11.0812 15.729C 10.3384 14.904 10 13.826 10 12.716L 10 12.716C 10 11.216 11.2158 10 12.7157 10L 235.284 10C 236.784 10 238 11.216 238 12.716L 238 12.716C 238 13.826 237.662 14.904 236.919 15.729C 231.551 21.692 204.717 46 124 46C 43.2826 46 16.4488 21.692 11.0812 15.729Z"></path></g></g></g><g id="g-root-ufo_1upwjpoc956oe-stroke" data-item-order="0" transform="translate(27, 39)"><g id="ufo_1upwjpoc956oe-stroke" fill="none" stroke-linecap="round" stroke-linejoin="round" stroke-miterlimit="4" stroke="#f99539" stroke-width="2"><g><path d="M 49 22.5C 52.977859 22.499041 56.352161 25.420879 56.919998 29.358C 56.961449 29.646814 56.874687 29.939325 56.682472 30.158836C 56.490257 30.378345 56.211758 30.502958 55.919998 30.5L 12.07 30.5C 11.778242 30.502958 11.499743 30.378345 11.307528 30.158836C 11.115312 29.939325 11.028553 29.646814 11.07 29.358C 11.638377 25.417118 15.018346 22.494064 19 22.5ZM 19 22.5C 19 17.5 25.716 11.5 34 11.5C 42.284 11.5 49 17.5 49 22.5M 47.77 39.5L 52.995998 56.5M 14.996 56.5L 20.232 39.5M 34.996002 49.5L 31.996 53.652M 37.996002 53.5L 34.996002 49.5M 31.996 46.5L 37.996002 46.5M 35 41.5C 35.552284 41.5 36 41.947716 36 42.5M 34 42.5C 34 41.947716 34.447716 41.5 35 41.5M 35 43.5C 34.447716 43.5 34 43.052284 34 42.5M 36 42.5C 36 43.052284 35.552284 43.5 35 43.5M 34.996002 49.5L 34.996002 46.5M 25 30.5C 25 33.261421 22.761425 35.5 20 35.5C 17.238577 35.5 15 33.261421 15 30.5M 39 30.5C 39 33.261421 36.761425 35.5 34 35.5C 31.238577 35.5 29 33.261421 29 30.5M 53 30.5C 53 33.261421 50.761425 35.5 48 35.5C 45.238575 35.5 43 33.261421 43 30.5"></path></g></g></g><g id="g-root-tx__18lxej0c9c5xo-stroke" data-item-order="0" transform="translate(87, 51)"></g><g id="g-root-1_1q87mbwc99de1-stroke" data-item-order="0" transform="translate(351, 39)"><g id="1_1q87mbwc99de1-stroke" fill="none" stroke-linecap="round" stroke-linejoin="round" stroke-miterlimit="4" stroke="#4f92ff" stroke-width="2"><g><path d="M 19.350719 56.5L 19.350719 43.970001C 16.587181 41.409798 14.65988 38.075798 13.82048 34.4034C 12.9811 30.731001 13.26862 26.89068 14.64554 23.384159C 16.02244 19.87764 18.424721 16.8678 21.538681 14.7477C 24.652641 12.6276 28.33354 11.495768 32.1008 11.500012C 46.378799 11.500012 49.4608 23.25602 54.5508 36.459999C 54.638 36.687401 54.668598 36.9324 54.639999 37.174202C 54.611401 37.416 54.524601 37.647202 54.386799 37.848C 54.249001 38.048599 54.064602 38.212799 53.849201 38.326401C 53.633801 38.440002 53.394199 38.499599 53.150799 38.5L 49.3508 38.5L 49.3508 44.5C 49.3508 46.0914 48.718601 47.617401 47.593399 48.742599C 46.468201 49.867802 44.942001 50.5 43.3508 50.5L 40.3508 50.5L 40.3508 56.5M 32.130798 41.320801C 38.372803 41.320801 43.432598 36.260799 43.432598 30.018999C 43.432598 23.777279 38.372803 18.717281 32.130798 18.717281C 25.88908 18.717281 20.8291 23.777279 20.8291 30.018999C 20.8291 36.260799 25.88908 41.320801 32.130798 41.320801ZM 28.3148 27.83272C 27.899321 27.83272 27.5625 27.495899 27.5625 27.08042C 27.5625 26.66494 27.899321 26.328119 28.3148 26.328119M 28.315081 27.83272C 28.73056 27.83272 29.067381 27.495899 29.067381 27.08042C 29.067381 26.66494 28.73056 26.328119 28.315081 26.328119M 35.946602 27.83272C 35.5312 27.83272 35.194401 27.495899 35.194401 27.08042C 35.194401 26.66494 35.5312 26.328119 35.946602 26.328119M 35.946999 27.83272C 36.3624 27.83272 36.6992 27.495899 36.6992 27.08042C 36.6992 26.66494 36.3624 26.328119 35.946999 26.328119M 35.600601 33.7066C 33.913002 35.285202 30.268999 35.2332 28.662279 33.7066"></path></g></g></g><g id="g-root-tx__vagw5oc9c7im-stroke" data-item-order="0" transform="translate(411, 51)"></g><g id="g-root-1_91hya4c8tz47-stroke" data-item-order="0" transform="translate(27, 111)"><g id="1_91hya4c8tz47-stroke" fill="none" stroke-linecap="round" stroke-linejoin="round" stroke-miterlimit="4" stroke="#44e095" stroke-width="2"><g><path d="M 29 42L 25 46L 25 38L 24 38C 16.82896 37.979126 11.02087 32.171036 11 25C 11 17.85 16.85 11 24 11L 40 11C 47.150002 11 53 17.85 53 25C 53.002449 26.716579 52.662483 28.416407 52 30M 33 46.5C 33 48.985283 35.014717 51 37.5 51C 39.985283 51 42 48.985283 42 46.5C 42 44.014717 39.985283 42 37.5 42C 35.014717 42 33 44.014717 33 46.5ZM 48 52.5C 48 54.985283 50.014717 57 52.5 57C 54.985283 57 57 54.985283 57 52.5C 57 50.014717 54.985283 48 52.5 48C 50.014717 48 48 50.014717 48 52.5ZM 48 37.5C 48 39.985283 50.014717 42 52.5 42C 54.985283 42 57 39.985283 57 37.5C 57 35.014717 54.985283 33 52.5 33C 50.014717 33 48 35.014717 48 37.5ZM 41.349998 44.189999L 48.650002 39.809998M 41.676003 48.169998L 48.324001 50.830002"></path></g></g></g><g id="g-root-tx__1hgxxosc9c8ar-stroke" data-item-order="0" transform="translate(87, 123)"></g><g id="g-root-1_1qf2ua4c956vb-stroke" data-item-order="0" transform="translate(351, 111)"><g id="1_1qf2ua4c956vb-stroke" fill="none" stroke-linecap="round" stroke-linejoin="round" stroke-miterlimit="4" stroke="#886aff" stroke-width="2"><g><path d="M 13.316 57L 15.732 37.708C 15.806149 36.310814 16.51762 35.025002 17.661999 34.220001C 19.191504 33.495491 20.813356 32.984707 22.482 32.702M 42.751999 48.48C 49.607571 47.554829 54.713001 41.687645 54.681999 34.77L 54.681999 13.898C 54.682846 12.990541 54.258286 12.135152 53.535011 11.5871C 52.811741 11.039047 51.873394 10.861707 51 11.108C 43.017769 13.393955 34.554226 13.393955 26.571999 11.108C 25.830429 10.901167 25.037033 10.99791 24.36689 11.376883C 23.696749 11.755854 23.204945 12.385903 23 13.128C 22.930466 13.37874 22.895477 13.637797 22.896 13.898L 22.896 37.613998L 22.896 37.613998L 42.762001 35.295998C 44.159039 35.086449 45.511242 35.886581 46 37.212002C 46.335823 38.480427 46.293419 39.819366 45.878002 41.064003C 45.433895 41.831257 44.67318 42.362804 43.799999 42.516003L 29.341999 45.188M 33.015999 44.507999L 34.984001 44.144001C 36.613243 43.842453 38.178452 44.918762 38.480003 46.548C 38.781548 48.177242 37.705238 49.742455 36.076 50.044003L 34.110001 50.408001M 33.015999 50.612L 34.984001 50.248001C 36.613243 49.946453 38.178452 51.022762 38.480003 52.652C 38.781548 54.281242 37.705238 55.846455 36.076 56.148003L 34.110001 56.512001M 35.552002 29.978001C 33.432587 30.285786 31.276457 29.758764 29.538 28.507999C 28.154978 26.87368 27.460199 24.766401 27.6 22.630001C 29.719452 22.321362 31.875898 22.848461 33.613998 24.099998C 34.997208 25.734215 35.692013 27.841572 35.552002 29.978001ZM 41.964001 29.978001C 44.083401 30.285572 46.239452 29.75857 47.978001 28.507999C 49.362461 26.874287 50.058697 24.766941 49.920002 22.630001C 47.800545 22.321362 45.644096 22.848461 43.905998 24.099998C 42.521351 25.73361 41.825092 27.84103 41.964001 29.978001Z"></path></g></g></g><g id="g-root-tx__1463wekc9c6px-stroke" data-item-order="0" transform="translate(411, 111)"></g><g id="g-root-tx__hzmuvgc9c5xr-stroke" data-item-order="0" transform="translate(93, 279)"></g><g id="g-root-tx__djtcr0c9c6q0-stroke" data-item-order="0" transform="translate(429, 279)"></g><g id="g-root-tx__93zumkc9c7i9-stroke" data-item-order="0" transform="translate(171, 351)"></g></g></g></svg>