<?xml version="1.0" encoding="utf-8" standalone="yes"?>
<!DOCTYPE svg PUBLIC "-//W3C//DTD SVG 1.1//EN" "http://www.w3.org/Graphics/SVG/1.1/DTD/svg11.dtd">
<svg width="926" height="644" viewBox="0 0 926 644" style="fill:none;stroke:none;fill-rule:evenodd;clip-rule:evenodd;stroke-linecap:round;stroke-linejoin:round;stroke-miterlimit:1.5;" version="1.1" xmlns="http://www.w3.org/2000/svg" xmlns:xlink="http://www.w3.org/1999/xlink"><style id="fontImports">@import url("https://fonts.googleapis.com/css2?family=Roboto:wght@400;700&amp;display=block");
@import url("https://fonts.googleapis.com/css2?family=Shantell+Sans:wght@300..800&amp;display=block");</style><rect id="" x="0" y="0" width="926" height="644" style="fill: #ffffff;"></rect><g id="items" style="isolation: isolate"><g id="blend" style="mix-blend-mode: normal"><g id="g-root-tf_dilghugemfwi-fill" data-item-order="-593208" transform="translate(-9, -9)"><g id="tf_dilghugemfwi-fill" stroke="none" fill="#ffffff"><g><path d="M 10 10L 934 10L 934 652L 10 652Z"></path></g></g></g><g id="g-root--1.cu_sy_18gbu0ygf64ga-fill" data-item-order="-230394" transform="translate(266, 243)"><g id="-1.cu_sy_18gbu0ygf64ga-fill" stroke="none" fill="#ebebeb"><g><path d="M 125 34L 101 10L 10 166L 34 190L 125 34ZM 125 34L 34 190L 216 190L 125 34Z"></path></g></g></g><g id="g-root-0.line-start_sy_140ibwigf658j-fill" data-item-order="-230389" transform="translate(243, 345)"></g><g id="g-root-0.cr-small_cr_140ibwigf658k-fill" data-item-order="-230388" transform="translate(171, 309)"><g id="0.cr-small_cr_140ibwigf658k-fill" stroke="none" fill="#ebebeb"><g><path d="M 10 46C 10 65.882251 26.117749 82 46 82C 65.882251 82 82 65.882251 82 46C 82 26.117749 65.882251 10 46 10C 26.117749 10 10 26.117749 10 46"></path></g></g></g><g id="g-root-6.line_sy_qpoamagf63np-fill" data-item-order="-230381" transform="translate(335.5, 345)"></g><g id="g-root-6.cr-small_cr_hu1adegf64ge-fill" data-item-order="-230380" transform="translate(591, 525)"><g id="6.cr-small_cr_hu1adegf64ge-fill" stroke="none" fill="#ffd9d8"><g><path d="M 10 40C 10.000002 56.568544 23.431459 70.000002 40.000002 70.000002C 56.568544 70.000002 70.000002 56.568544 70.000002 40.000002C 70.000002 23.431459 56.568544 10.000002 40.000002 10.000002C 23.431459 10.000002 10.000002 23.431459 10.000002 40.000002"></path></g></g></g><g id="g-root-5.line_sy_de7s8ygf658n-fill" data-item-order="-230373" transform="translate(335.5, 345)"></g><g id="g-root-5.cr-small_cr_de7s8ygf658o-fill" data-item-order="-230372" transform="translate(591, 441)"><g id="5.cr-small_cr_de7s8ygf658o-fill" stroke="none" fill="#ffe4cb"><g><path d="M 10 40C 10.000002 56.568544 23.431459 70.000002 40.000002 70.000002C 56.568544 70.000002 70.000002 56.568544 70.000002 40.000002C 70.000002 23.431459 56.568544 10.000002 40.000002 10.000002C 23.431459 10.000002 10.000002 23.431459 10.000002 40.000002"></path></g></g></g><g id="g-root-4.line_sy_8z0r7mgf62v5-fill" data-item-order="-230365" transform="translate(335.5, 345)"></g><g id="g-root-4.cr-small_cr_3dqyqgf63nu-fill" data-item-order="-230364" transform="translate(591, 357)"><g id="4.cr-small_cr_3dqyqgf63nu-fill" stroke="none" fill="#fff8b6"><g><path d="M 10 40C 10.000002 56.568544 23.431459 70.000002 40.000002 70.000002C 56.568544 70.000002 70.000002 56.568544 70.000002 40.000002C 70.000002 23.431459 56.568544 10.000002 40.000002 10.000002C 23.431459 10.000002 10.000002 23.431459 10.000002 40.000002"></path></g></g></g><g id="g-root-3.line_sy_1lt1akigf651n-fill" data-item-order="-230357" transform="translate(336, 303)"></g><g id="g-root-3.cr-small_cr_18i79aagf63gs-fill" data-item-order="-230356" transform="translate(591, 273)"><g id="3.cr-small_cr_18i79aagf63gs-fill" stroke="none" fill="#e9ffb9"><g><path d="M 10 40C 10.000002 56.568544 23.431459 70.000002 40.000002 70.000002C 56.568544 70.000002 70.000002 56.568544 70.000002 40.000002C 70.000002 23.431459 56.568544 10.000002 40.000002 10.000002C 23.431459 10.000002 10.000002 23.431459 10.000002 40.000002"></path></g></g></g><g id="g-root-2.line_sy_142dr5ugf6491-fill" data-item-order="-230349" transform="translate(335.5, 219)"></g><g id="g-root-2.cr-small_cr_qrjpvmgf62o6-fill" data-item-order="-230348" transform="translate(591, 189)"><g id="2.cr-small_cr_qrjpvmgf62o6-fill" stroke="none" fill="#c8ffe5"><g><path d="M 10 40C 10.000002 56.568544 23.431459 70.000002 40.000002 70.000002C 56.568544 70.000002 70.000002 56.568544 70.000002 40.000002C 70.000002 23.431459 56.568544 10.000002 40.000002 10.000002C 23.431459 10.000002 10.000002 23.431459 10.000002 40.000002"></path></g></g></g><g id="g-root-1.line_sy_dg37iagf6493-fill" data-item-order="-230341" transform="translate(335.5, 134.9998779296875)"></g><g id="g-root-1.cr-small_cr_dg37iagf6494-fill" data-item-order="-230340" transform="translate(591, 105)"><g id="1.cr-small_cr_dg37iagf6494-fill" stroke="none" fill="#d1f4ff"><g><path d="M 10 40C 10.000002 56.568544 23.431459 70.000002 40.000002 70.000002C 56.568544 70.000002 70.000002 56.568544 70.000002 40.000002C 70.000002 23.431459 56.568544 10.000002 40.000002 10.000002C 23.431459 10.000002 10.000002 23.431459 10.000002 40.000002"></path></g></g></g><g id="g-root-tx__141rmpugemeq2-fill" data-item-order="0" transform="translate(-9, 321)"><g id="tx__141rmpugemeq2-fill" stroke="none" fill="#484848"><g><text style="font: 20px Roboto, sans-serif; white-space: pre;" font-size="20px" font-family="Roboto, sans-serif"><tspan x="16" y="46" dominant-baseline="ideographic">三体人的状态转换</tspan></text></g></g></g><g id="g-root-alie_59682gf62o9-fill" data-item-order="0" transform="translate(183, 321)"></g><g id="g-root-tx__v801qagemej2-fill" data-item-order="0" transform="translate(663, 291)"><g id="tx__v801qagemej2-fill" stroke="none" fill="#484848"><g><text style="font: 20px Roboto, sans-serif; white-space: pre;" font-size="20px" font-family="Roboto, sans-serif"><tspan x="12" y="34" dominant-baseline="ideographic">意识持续性</tspan></text></g></g></g><g id="g-root-book_vcda6agentaa-fill" data-item-order="0" transform="translate(603, 285)"></g><g id="g-root-tx__4lpi2qgemej3-fill" data-item-order="0" transform="translate(663, 207)"><g id="tx__4lpi2qgemej3-fill" stroke="none" fill="#484848"><g><text style="font: 20px Roboto, sans-serif; white-space: pre;" font-size="20px" font-family="Roboto, sans-serif"><tspan x="12" y="34" dominant-baseline="ideographic">浸泡过程</tspan></text></g></g></g><g id="g-root-pain_94nagygethxc-fill" data-item-order="0" transform="translate(603, 201)"></g><g id="g-root-tx__1ur6jsygemfwg-fill" data-item-order="0" transform="translate(663, 123)"><g id="tx__1ur6jsygemfwg-fill" stroke="none" fill="#484848"><g><text style="font: 20px Roboto, sans-serif; white-space: pre;" font-size="20px" font-family="Roboto, sans-serif"><tspan x="12" y="34" dominant-baseline="ideographic">脱水过程</tspan></text></g></g></g><g id="g-root-4_m7d2gygf3bwp-fill" data-item-order="0" transform="translate(603, 369)"></g><g id="g-root-tx__1lualdugemej1-fill" data-item-order="0" transform="translate(663, 363)"><g id="tx__1lualdugemej1-fill" stroke="none" fill="#484848"><g><text style="font: 20px Roboto, sans-serif; white-space: pre;" font-size="20px" font-family="Roboto, sans-serif"><tspan x="12" y="46" dominant-baseline="ideographic">身体与意识的关系</tspan></text></g></g></g><g id="g-root-hand_vbqt36gf0iz0-fill" data-item-order="0" transform="translate(603, 117)"></g><g id="g-root-doub_1luaf2agep7gr-fill" data-item-order="0" transform="translate(603, 453)"></g><g id="g-root-tx__qqb4cigemgaz-fill" data-item-order="0" transform="translate(663, 531)"><g id="tx__qqb4cigemgaz-fill" stroke="none" fill="#484848"><g><text style="font: 20px Roboto, sans-serif; white-space: pre;" font-size="20px" font-family="Roboto, sans-serif"><tspan x="12" y="46" dominant-baseline="ideographic">社会与组织的认同</tspan></text></g></g></g><g id="g-root-meet_18kp8sigep91n-fill" data-item-order="0" transform="translate(603, 537)"></g><g id="g-root-tx__18kpi9ugemf49-fill" data-item-order="0" transform="translate(279, 27)"><g id="tx__18kpi9ugemf49-fill" stroke="none" fill="#484848"><g><text style="font: bold 25px &quot;Shantell Sans&quot;, cursive; white-space: pre;" font-weight="bold" font-size="25px" font-family="'Shantell Sans', cursive"><tspan x="17" y="44.33" dominant-baseline="ideographic">探索三体人的意识转变</tspan></text></g></g></g><g id="g-root-tx__8znkxugemfic-fill" data-item-order="0" transform="translate(663, 459)"><g id="tx__8znkxugemfic-fill" stroke="none" fill="#484848"><g><text style="font: 20px Roboto, sans-serif; white-space: pre;" font-size="20px" font-family="Roboto, sans-serif"><tspan x="12" y="34" dominant-baseline="ideographic">个人身份的哲学</tspan></text></g></g></g><g id="g-root-tf_dilghugemfwi-stroke" data-item-order="-593208" transform="translate(-9, -9)"></g><g id="g-root--1.cu_sy_18gbu0ygf64ga-stroke" data-item-order="-230394" transform="translate(266, 243)"><g id="-1.cu_sy_18gbu0ygf64ga-stroke" fill="none" stroke-linecap="round" stroke-linejoin="round" stroke-miterlimit="4" stroke="#ffffff" stroke-width="2"><g><path d="M 125 34L 101 10L 10 166L 34 190L 125 34ZM 125 34L 34 190L 216 190L 125 34Z"></path></g></g></g><g id="g-root-0.line-start_sy_140ibwigf658j-stroke" data-item-order="-230389" transform="translate(243, 345)"><g id="0.line-start_sy_140ibwigf658j-stroke" fill="none" stroke-linecap="round" stroke-linejoin="round" stroke-miterlimit="4" stroke="#484848" stroke-width="2"><g><path d="M 10 10L 102.5 10"></path></g></g></g><g id="g-root-0.cr-small_cr_140ibwigf658k-stroke" data-item-order="-230388" transform="translate(171, 309)"><g id="0.cr-small_cr_140ibwigf658k-stroke" fill="none" stroke-linecap="round" stroke-linejoin="round" stroke-miterlimit="4" stroke="#ffffff" stroke-width="2"><g><path d="M 10 46C 10 65.882251 26.117749 82 46 82C 65.882251 82 82 65.882251 82 46C 82 26.117749 65.882251 10 46 10C 26.117749 10 10 26.117749 10 46"></path></g></g></g><g id="g-root-6.line_sy_qpoamagf63np-stroke" data-item-order="-230381" transform="translate(335.5, 345)"><g id="6.line_sy_qpoamagf63np-stroke" fill="none" stroke-linecap="round" stroke-linejoin="round" stroke-miterlimit="4" stroke="#fd6a65" stroke-width="2"><g><path d="M 258.27 218.43L 118.5 40.25L 10 10"></path><path d="M 249.4 217.7L 258.6 218.8L 259.7 209.7" stroke-dasharray="none"></path></g></g></g><g id="g-root-6.cr-small_cr_hu1adegf64ge-stroke" data-item-order="-230380" transform="translate(591, 525)"><g id="6.cr-small_cr_hu1adegf64ge-stroke" fill="none" stroke-linecap="round" stroke-linejoin="round" stroke-miterlimit="4" stroke="#ffffff" stroke-width="2"><g><path d="M 10 40C 10.000002 56.568544 23.431459 70.000002 40.000002 70.000002C 56.568544 70.000002 70.000002 56.568544 70.000002 40.000002C 70.000002 23.431459 56.568544 10.000002 40.000002 10.000002C 23.431459 10.000002 10.000002 23.431459 10.000002 40.000002"></path></g></g></g><g id="g-root-5.line_sy_de7s8ygf658n-stroke" data-item-order="-230373" transform="translate(335.5, 345)"><g id="5.line_sy_de7s8ygf658n-stroke" fill="none" stroke-linecap="round" stroke-linejoin="round" stroke-miterlimit="4" stroke="#f99539" stroke-width="2"><g><path d="M 257.89 134.82L 112 28.25L 10 10"></path><path d="M 249.2 136.5L 258.3 135.1L 256.9 126" stroke-dasharray="none"></path></g></g></g><g id="g-root-5.cr-small_cr_de7s8ygf658o-stroke" data-item-order="-230372" transform="translate(591, 441)"><g id="5.cr-small_cr_de7s8ygf658o-stroke" fill="none" stroke-linecap="round" stroke-linejoin="round" stroke-miterlimit="4" stroke="#ffffff" stroke-width="2"><g><path d="M 10 40C 10.000002 56.568544 23.431459 70.000002 40.000002 70.000002C 56.568544 70.000002 70.000002 56.568544 70.000002 40.000002C 70.000002 23.431459 56.568544 10.000002 40.000002 10.000002C 23.431459 10.000002 10.000002 23.431459 10.000002 40.000002"></path></g></g></g><g id="g-root-4.line_sy_8z0r7mgf62v5-stroke" data-item-order="-230365" transform="translate(335.5, 345)"><g id="4.line_sy_8z0r7mgf62v5-stroke" fill="none" stroke-linecap="round" stroke-linejoin="round" stroke-miterlimit="4" stroke="#ffe60a" stroke-width="2"><g><path d="M 257.55 52.04L 105 16L 10 10"></path><path d="M 250.2 57L 258 52.2L 253.2 44.3" stroke-dasharray="none"></path></g></g></g><g id="g-root-4.cr-small_cr_3dqyqgf63nu-stroke" data-item-order="-230364" transform="translate(591, 357)"><g id="4.cr-small_cr_3dqyqgf63nu-stroke" fill="none" stroke-linecap="round" stroke-linejoin="round" stroke-miterlimit="4" stroke="#ffffff" stroke-width="2"><g><path d="M 10 40C 10.000002 56.568544 23.431459 70.000002 40.000002 70.000002C 56.568544 70.000002 70.000002 56.568544 70.000002 40.000002C 70.000002 23.431459 56.568544 10.000002 40.000002 10.000002C 23.431459 10.000002 10.000002 23.431459 10.000002 40.000002"></path></g></g></g><g id="g-root-3.line_sy_1lt1akigf651n-stroke" data-item-order="-230357" transform="translate(336, 303)"><g id="3.line_sy_1lt1akigf651n-stroke" fill="none" stroke-linecap="round" stroke-linejoin="round" stroke-miterlimit="4" stroke="#a8dd38" stroke-width="2"><g><path d="M 257.55 10.429932L 97.75 45.749932L 10 51.999932"></path><path d="M 253.1 18.029932L 258 10.329932L 250.3 5.329932" stroke-dasharray="none"></path></g></g></g><g id="g-root-3.cr-small_cr_18i79aagf63gs-stroke" data-item-order="-230356" transform="translate(591, 273)"><g id="3.cr-small_cr_18i79aagf63gs-stroke" fill="none" stroke-linecap="round" stroke-linejoin="round" stroke-miterlimit="4" stroke="#ffffff" stroke-width="2"><g><path d="M 10 40C 10.000002 56.568544 23.431459 70.000002 40.000002 70.000002C 56.568544 70.000002 70.000002 56.568544 70.000002 40.000002C 70.000002 23.431459 56.568544 10.000002 40.000002 10.000002C 23.431459 10.000002 10.000002 23.431459 10.000002 40.000002"></path></g></g></g><g id="g-root-2.line_sy_142dr5ugf6491-stroke" data-item-order="-230349" transform="translate(335.5, 219)"><g id="2.line_sy_142dr5ugf6491-stroke" fill="none" stroke-linecap="round" stroke-linejoin="round" stroke-miterlimit="4" stroke="#44e095" stroke-width="2"><g><path d="M 257.82 11.080078L 90.75 118.000078L 10 136.000078"></path><path d="M 256.3 19.780078L 258.2 10.780078L 249.3 8.880078" stroke-dasharray="none"></path></g></g></g><g id="g-root-2.cr-small_cr_qrjpvmgf62o6-stroke" data-item-order="-230348" transform="translate(591, 189)"><g id="2.cr-small_cr_qrjpvmgf62o6-stroke" fill="none" stroke-linecap="round" stroke-linejoin="round" stroke-miterlimit="4" stroke="#ffffff" stroke-width="2"><g><path d="M 10 40C 10.000002 56.568544 23.431459 70.000002 40.000002 70.000002C 56.568544 70.000002 70.000002 56.568544 70.000002 40.000002C 70.000002 23.431459 56.568544 10.000002 40.000002 10.000002C 23.431459 10.000002 10.000002 23.431459 10.000002 40.000002"></path></g></g></g><g id="g-root-1.line_sy_dg37iagf6493-stroke" data-item-order="-230341" transform="translate(335.5, 134.9998779296875)"><g id="1.line_sy_dg37iagf6493-stroke" fill="none" stroke-linecap="round" stroke-linejoin="round" stroke-miterlimit="4" stroke="#1ac6ff" stroke-width="2"><g><path d="M 10 220.000054L 83.5 190.000054L 258.1 11.430054"></path><path d="M 258.6 20.230054L 258.5 11.030054L 249.3 11.130054" stroke-dasharray="none"></path></g></g></g><g id="g-root-1.cr-small_cr_dg37iagf6494-stroke" data-item-order="-230340" transform="translate(591, 105)"><g id="1.cr-small_cr_dg37iagf6494-stroke" fill="none" stroke-linecap="round" stroke-linejoin="round" stroke-miterlimit="4" stroke="#ffffff" stroke-width="2"><g><path d="M 10 40C 10.000002 56.568544 23.431459 70.000002 40.000002 70.000002C 56.568544 70.000002 70.000002 56.568544 70.000002 40.000002C 70.000002 23.431459 56.568544 10.000002 40.000002 10.000002C 23.431459 10.000002 10.000002 23.431459 10.000002 40.000002"></path></g></g></g><g id="g-root-tx__141rmpugemeq2-stroke" data-item-order="0" transform="translate(-9, 321)"></g><g id="g-root-alie_59682gf62o9-stroke" data-item-order="0" transform="translate(183, 321)"><g id="alie_59682gf62o9-stroke" fill="none" stroke-linecap="round" stroke-linejoin="round" stroke-miterlimit="4" stroke="#969696" stroke-width="2"><g><path d="M 56.285713 28.857143C 56.285713 41.165714 46.171429 56.285713 34 56.285713C 21.828571 56.285713 11.714286 41.165714 11.714286 28.857143C 11.714286 16.548571 21.691429 11.714286 34 11.714286C 46.308571 11.714286 56.285713 16.548571 56.285713 28.857143ZM 19.428572 26.285715C 18.80402 29.1866 19.412498 32.216572 21.108572 34.651428C 23.54343 36.347504 26.5734 36.955978 29.474285 36.331429C 30.098837 33.430542 29.49036 30.400572 27.794287 27.965714C 25.359428 26.269642 22.329456 25.661163 19.428572 26.285715ZM 48.57143 26.285715C 49.19598 29.1866 48.587502 32.216572 46.89143 34.651428C 44.456573 36.347504 41.426598 36.955978 38.525715 36.331429C 37.901165 33.430542 38.509644 30.400572 40.205715 27.965714C 42.640572 26.269642 45.670544 25.661163 48.57143 26.285715Z"></path></g></g></g><g id="g-root-tx__v801qagemej2-stroke" data-item-order="0" transform="translate(663, 291)"></g><g id="g-root-book_vcda6agentaa-stroke" data-item-order="0" transform="translate(603, 285)"><g id="book_vcda6agentaa-stroke" fill="none" stroke-linecap="round" stroke-linejoin="round" stroke-miterlimit="4" stroke="#92bd39" stroke-width="2"><g><path d="M 31.502501 13.6675L 31.502501 31.577499C 31.502501 31.577499 34.069 28.771 42.725498 28.66C 43.018074 28.656713 43.253521 28.418594 43.253502 28.126001L 43.253502 11.284C 43.253109 11.141191 43.19569 11.004455 43.094009 10.90418C 42.992325 10.803905 42.854801 10.7484 42.712002 10.75C 41.104511 10.766653 39.500332 10.8995 37.911999 11.1475C 35.608482 11.475422 33.413834 12.338486 31.504002 13.6675M 31.502501 13.6675L 31.502501 31.577499C 31.502501 31.577499 28.9345 28.771 20.278 28.66C 19.985426 28.656713 19.749983 28.418594 19.75 28.126001L 19.75 11.284C 19.750391 11.141191 19.80781 11.004455 19.909492 10.90418C 20.011175 10.803905 20.148699 10.7484 20.2915 10.75C 21.898991 10.766585 23.503178 10.899432 25.091499 11.1475C 27.395529 11.475249 29.590702 12.338319 31.501001 13.6675M 12.7465 43.75L 21.5485 45.170502C 23.380476 45.42527 25.244621 45.04916 26.834499 44.104L 36.049 38.625999C 36.669754 38.258507 37.118843 37.659199 37.297241 36.960228C 37.475643 36.261261 37.368702 35.520035 37 34.900002L 37 34.900002C 36.233803 33.610836 34.567505 33.187042 33.2785 33.953499L 26.078499 38.233002M 12.7465 36.685001L 16.484501 34.463501C 17.867617 33.639969 19.463978 33.245316 21.071501 33.329502L 24.793001 33.522999C 25.486073 33.526203 26.14765 33.812866 26.623943 34.31636C 27.100235 34.819855 27.349754 35.496319 27.314501 36.188499L 27.314501 36.188499C 27.249752 37.466263 26.243019 38.49551 24.967001 38.588501L 20.215 38.563"></path></g></g></g><g id="g-root-tx__4lpi2qgemej3-stroke" data-item-order="0" transform="translate(663, 207)"></g><g id="g-root-pain_94nagygethxc-stroke" data-item-order="0" transform="translate(603, 201)"><g id="pain_94nagygethxc-stroke" fill="none" stroke-linecap="round" stroke-linejoin="round" stroke-miterlimit="4" stroke="#3cc583" stroke-width="2"><g><path d="M 32.5 25.393C 34.2145 28.7395 36.718002 28.101999 38.177498 31.051001C 39.249687 33.101025 38.456688 35.632076 36.406425 36.703812C 34.356163 37.775551 31.825287 36.981995 30.754 34.931496C 30.1675 33.809502 30.060999 29.8675 32.5 25.393ZM 45.25 44.060501L 37.848999 35.459499M 35.022999 37.150002L 39.699997 45.25M 10.852 22.75L 38.741501 22.75M 13.9855 30.25L 27.25 30.25M 31.518999 40.046501C 31.170214 41.758949 30.996321 43.502403 31.000002 45.250004L 19 45.25C 19.06156 39.128899 16.811787 33.209854 12.7 28.674999C 10.948937 26.739212 10.3206 24.036938 11.037976 21.527184C 11.755354 19.017431 13.716908 17.055439 16.2265 16.3375C 16.986357 16.118605 17.445784 15.347425 17.276501 14.575C 17.130278 13.671478 16.762871 12.818145 16.207001 12.091C 15.994501 11.854227 15.941607 11.51442 16.072081 11.224258C 16.202557 10.934097 16.491859 10.748163 16.809999 10.75M 16.809999 10.75L 33.189999 10.75C 33.507599 10.749355 33.795811 10.935734 33.925522 11.225636C 34.055233 11.515539 34.002129 11.854631 33.790001 12.091C 33.234127 12.818145 32.866722 13.671478 32.720497 14.575C 32.551216 15.347425 33.010643 16.118605 33.7705 16.3375C 35.846619 16.931992 37.56921 18.386297 38.503445 20.333319C 39.437683 22.280338 39.494297 24.534027 38.659 26.525501"></path></g></g></g><g id="g-root-tx__1ur6jsygemfwg-stroke" data-item-order="0" transform="translate(663, 123)"></g><g id="g-root-4_m7d2gygf3bwp-stroke" data-item-order="0" transform="translate(603, 369)"><g id="4_m7d2gygf3bwp-stroke" fill="none" stroke-linecap="round" stroke-linejoin="round" stroke-miterlimit="4" stroke="#e0cb15" stroke-width="2"><g><path d="M 19.515625 20.125C 22.0009 20.125 24.015625 18.110275 24.015625 15.625C 24.015625 13.139725 22.0009 11.125 19.515625 11.125C 17.03035 11.125 15.015625 13.139725 15.015625 15.625C 15.015625 18.110275 17.03035 20.125 19.515625 20.125ZM 24.99262 24.65152C 23.582081 23.32954 21.693745 22.524971 19.665474 22.524971C 15.465475 22.524971 11.865475 26.125 11.865475 30.325001L 11.865475 33.625L 15.015475 33.625L 16.215475 44.875L 22.965475 44.875L 23.404045 40.7635M 10 10M 34.081299 44.875L 25.543449 37.141449C 20.903425 32.50135 27.7243 23.59243 34.081299 30.800051C 40.438152 23.59243 47.228199 32.532398 42.618999 37.141449L 34.081299 44.875Z"></path></g></g></g><g id="g-root-tx__1lualdugemej1-stroke" data-item-order="0" transform="translate(663, 363)"></g><g id="g-root-hand_vbqt36gf0iz0-stroke" data-item-order="0" transform="translate(603, 117)"><g id="hand_vbqt36gf0iz0-stroke" fill="none" stroke-linecap="round" stroke-linejoin="round" stroke-miterlimit="4" stroke="#1eabda" stroke-width="2"><g><path d="M 31.75 38.359001L 31.75 32.772999C 32.314777 32.550003 32.834625 32.226814 33.2845 31.819L 39.134499 24.966999C 39.454704 24.727991 39.652576 24.359413 39.67487 23.960468C 39.697163 23.561522 39.54158 23.173195 39.25 22.900002C 38.591705 22.303293 37.599407 22.267199 36.899502 22.814501L 33.577 25.3645L 35.4025 14.434C 35.478996 14.032864 35.385002 13.61799 35.143089 13.28899C 34.90118 12.959991 34.533195 12.74658 34.127499 12.7C 33.274227 12.503929 32.413002 12.994196 32.146 13.828L 30.25 21.295L 30.25 12.376C 30.181034 11.405969 29.345928 10.671074 28.375 10.726C 27.404074 10.671074 26.568966 11.405969 26.5 12.376L 26.5 21.295L 25.0795 14.2C 24.816231 13.366641 23.954357 12.877789 23.104 13.0795C 22.697453 13.128991 22.329395 13.344184 22.086859 13.674192C 21.844324 14.0042 21.748844 14.419722 21.823 14.8225L 23.5945 23.431L 20.585501 19.2505C 20.04343 18.551441 19.073751 18.349876 18.298 18.775C 17.9333 18.945221 17.661814 19.267094 17.555527 19.655273C 17.449238 20.043455 17.518885 20.458733 17.746 20.791L 20.1115 24.715C 20.567675 25.463797 20.808985 26.32369 20.808998 27.200499C 20.8015 30.013 21.5755 32.384499 24.251501 33.017502L 24.251501 38.359001M 45.25 45.109001C 41.5 45.890499 39.16 42.140499 39.16 42.140499L 39.16 42.140499C 37.981289 44.014351 35.941639 45.172462 33.7285 45.224503C 31.629511 45.18557 29.719667 44.002491 28.75 42.140499L 28.75 42.140499C 27.335381 43.980572 25.185059 45.107819 22.867001 45.224503C 20.66984 45.120289 18.65402 43.974762 17.439999 42.140495L 17.440001 42.140499C 17.440001 42.140499 14.440001 45.952 10.7575 45.170502M 19.7785 38.349998C 18.849245 37.790154 18.051622 37.03653 17.440001 36.140503L 17.440001 36.140499C 17.440001 36.140499 14.440001 39.952 10.7575 39.170502M 45.25 39.109001C 41.5 39.890499 39.16 36.140499 39.16 36.140499L 39.16 36.140499C 38.57262 37.059917 37.776543 37.827728 36.836502 38.3815M 18.25 31.127501C 17.951393 30.825064 17.68265 30.494534 17.4475 30.140501L 17.4475 30.140499C 17.4475 30.140499 14.4475 33.952 10.765 33.170498M 45.25 33.109001C 41.5 33.890499 39.16 30.140499 39.16 30.140499L 39.16 30.140499C 38.786575 30.731928 38.322395 31.260899 37.7845 31.708"></path></g></g></g><g id="g-root-doub_1luaf2agep7gr-stroke" data-item-order="0" transform="translate(603, 453)"><g id="doub_1luaf2agep7gr-stroke" fill="none" stroke-linecap="round" stroke-linejoin="round" stroke-miterlimit="4" stroke="#de8431" stroke-width="2"><g><path d="M 39.25 17.5L 39.25 16C 39.25 15.171573 38.578426 14.5 37.75 14.5L 12.25 14.5C 11.421573 14.5 10.75 15.171573 10.75 16L 10.75 34C 10.75 34.828426 11.421573 35.5 12.25 35.5L 13.75 35.5M 34 26.5L 40.75 26.5M 34 31L 37.75 31M 19.75 35.5C 19.775057 34.765892 19.952837 34.045071 20.271999 33.383499C 20.6395 32.648499 22.175499 32.1385 24.1045 31.423C 24.626501 31.2295 24.541 29.868999 24.309999 29.614C 23.566257 28.807636 23.201759 27.722328 23.307999 26.630501C 23.243938 25.717197 23.694864 24.844482 24.476851 24.368328C 25.258837 23.892172 26.241163 23.892172 27.023149 24.368328C 27.805136 24.844482 28.256062 25.717197 28.192001 26.630501C 28.298239 27.722328 27.933743 28.807636 27.190001 29.614C 26.959 29.868999 26.873499 31.2295 27.3955 31.423C 29.324501 32.1385 30.8605 32.648499 31.228001 33.383499C 31.547161 34.045071 31.724941 34.765892 31.75 35.5ZM 39.25 40.75C 39.25 41.164215 39.585785 41.5 40 41.5L 43.75 41.5C 44.578426 41.5 45.25 40.828426 45.25 40L 45.25 22C 45.25 21.171574 44.578426 20.5 43.75 20.5L 18.25 20.5C 17.421574 20.5 16.75 21.171574 16.75 22L 16.75 40C 16.75 40.828426 17.421574 41.5 18.25 41.5L 21.25 41.5C 21.664213 41.5 22 41.164215 22 40.75C 22 39.093143 23.343145 37.75 25 37.75C 26.656855 37.75 28 39.093143 28 40.75C 28 41.164215 28.335787 41.5 28.75 41.5L 32.5 41.5C 32.914215 41.5 33.25 41.164215 33.25 40.75C 33.25 39.093143 34.593143 37.75 36.25 37.75C 37.906857 37.75 39.25 39.093143 39.25 40.75Z"></path></g></g></g><g id="g-root-tx__qqb4cigemgaz-stroke" data-item-order="0" transform="translate(663, 531)"></g><g id="g-root-meet_18kp8sigep91n-stroke" data-item-order="0" transform="translate(603, 537)"><g id="meet_18kp8sigep91n-stroke" fill="none" stroke-linecap="round" stroke-linejoin="round" stroke-miterlimit="4" stroke="#e55753" stroke-width="2"><g><path d="M 10.75 29.68C 10.886069 28.786062 11.138198 27.913696 11.5 27.085001C 11.725 26.17 11.905 24.505001 12.865 23.98C 13.825 23.455 14.65 24.295 14.845 25.210001C 14.972523 26.534342 14.787567 27.870131 14.305 29.110001C 15.085 27.325001 14.665 24.610001 16.959999 23.994999C 19.255001 23.380001 17.844999 26.244999 17.665001 27.295C 17.485001 28.344999 17.139999 29.5 18.625 29.860001C 20.110001 30.219999 21.625 28.945 22.555 28.135C 23.040831 27.785749 23.339428 27.23279 23.365 26.635C 23.365 25.84 22.645 24.895 21.744999 25.315001C 20.844999 25.735001 20.994999 27.07 21.25 27.67C 21.671818 28.430323 22.387856 28.983625 23.23 29.199999C 24.73 29.710001 26.844999 29.469999 27.34 27.594999C 27.52 26.905001 27.115 25.150002 26.035 25.33C 24.955 25.51 25.135 27.76 25.615 28.450001C 26.545 29.74 29.395 29.155001 30.400002 28.105C 31.135 27.460001 30.789999 22.24 30.789999 22.24C 30.789999 22.24 30.789999 27.594999 31.93 28.555C 32.252995 28.852346 32.682838 29.005871 33.121124 28.980421C 33.559406 28.954971 33.96859 28.752731 34.255001 28.420002C 34.906364 27.63752 35.336258 26.694859 35.5 25.690001C 35.380001 26.575001 35.5 29.695 36.880001 29.664999C 37.720001 29.664999 38.380001 28.164999 38.514999 27.52C 38.569832 26.890945 38.564808 26.258104 38.5 25.630001C 38.5 27.280001 38.02 28.809999 40 29.184999C 41.380184 29.555799 42.835217 28.936638 43.525002 27.684999C 43.830688 27.142706 43.916595 26.503777 43.764999 25.9C 43.504852 25.512783 43.061447 25.289444 42.595451 25.310905C 42.129456 25.332365 41.708458 25.595512 41.485001 26.004999C 41.154305 26.879856 40.961998 27.800911 40.915001 28.735001C 40.704998 29.650002 40.404999 30.549999 40.224998 31.48C 39.958786 32.230602 40.001957 33.056255 40.345001 33.775002C 40.296005 33.684044 40.255821 33.588608 40.224998 33.490002M 40.764999 29.275002C 42.26162 29.583252 43.81279 29.495354 45.264999 29.02M 28.555 23.635L 33.34 23.455"></path></g></g></g><g id="g-root-tx__18kpi9ugemf49-stroke" data-item-order="0" transform="translate(279, 27)"></g><g id="g-root-tx__8znkxugemfic-stroke" data-item-order="0" transform="translate(663, 459)"></g></g></g></svg>