<?xml version="1.0" encoding="utf-8" standalone="yes"?>
<!DOCTYPE svg PUBLIC "-//W3C//DTD SVG 1.1//EN" "http://www.w3.org/Graphics/SVG/1.1/DTD/svg11.dtd">
<svg width="700" height="501" viewBox="0 0 700 501" style="fill:none;stroke:none;fill-rule:evenodd;clip-rule:evenodd;stroke-linecap:round;stroke-linejoin:round;stroke-miterlimit:1.5;" version="1.1" xmlns="http://www.w3.org/2000/svg" xmlns:xlink="http://www.w3.org/1999/xlink"><style id="fontImports">@import url("https://fonts.googleapis.com/css2?family=Shantell+Sans:wght@300..800&amp;display=block");</style><rect id="" x="0" y="0" width="700" height="500.167" style="fill: #ffffff;"></rect><g id="items" style="isolation: isolate"><g id="blend" style="mix-blend-mode: normal"><g id="g-root-tf_1hi71z71rks6it-fill" data-item-order="-345332" transform="translate(-8, -8)"><g id="tf_1hi71z71rks6it-fill" stroke="none" fill="#ffffff"><g><path d="M 10 10L 706 10L 706 506.17L 10 506.17Z"></path></g></g></g><g id="g-root-0.cu_sy_4loj431rktma6-fill" data-item-order="-102605" transform="translate(209.00006103515625, 159.99951171875)"><g id="0.cu_sy_4loj431rktma6-fill" stroke="none" fill="#ebebeb"><g><path d="M 245.399939 181.20032L 249.499939 172.00032L 233.099939 159.80032L 227.099939 173.00032ZM 233.099939 159.80032L 202.999939 185.70032L 220.299939 197.20032L 249.499939 172.00032ZM 220.299939 197.20032L 250.399939 103.70032L 232.099939 95.10032L 202.999939 185.70032ZM 232.099939 95.10032L 173.999939 184.40032L 191.999939 193.40032L 250.399939 103.70032ZM 191.999939 193.40032L 235.599939 74.50032L 217.099939 66.60032L 173.999939 184.40032ZM 217.099939 66.60032L 128.799939 246.10032L 147.299939 253.90032L 235.599939 74.50032ZM 147.299939 253.90032L 208.599939 77.70032L 190.099939 69.90032L 128.799939 246.10032ZM 190.099939 69.90032L 105.499939 241.70032L 123.899939 249.60032L 208.599939 77.70032ZM 123.899939 249.60032L 196.399939 56.70032L 178.099939 48.50032L 105.499939 241.70032ZM 178.099939 48.50032L 79.899939 236.40032L 98.199939 244.70032L 196.399939 56.70032ZM 98.199939 244.70032L 184.299939 22.70032L 165.899939 14.80032L 79.899939 236.40032ZM 165.899939 14.80032L 62.799939 232.60032L 81.199939 240.50032L 184.299939 22.70032ZM 81.199939 240.50032L 167.599939 20.00032L 149.499939 11.40032L 62.799939 232.60032ZM 149.499939 11.40032L 53.499939 181.20032L 71.599939 189.70032L 167.599939 20.00032ZM 71.599939 189.70032L 139.299939 13.10032L 120.999939 5.20032L 53.499939 181.20032ZM 120.999939 5.20032L 34.499939 184.50032L 52.999939 192.10032L 139.299939 13.10032ZM 52.999939 192.10032L 114.199939 16.80032L 95.699939 9.10032L 34.499939 184.50032ZM 95.699939 9.10032L 15.399939 174.10032L 33.999939 181.70032L 114.199939 16.80032ZM 33.999939 181.70032L 67.899939 80.80032L 49.999939 71.50032L 15.399939 174.10032ZM 49.999939 71.50032L 9.599939 127.30032L 28.099939 135.90032L 67.899939 80.80032ZM 28.099939 135.90032L 43.799939 72.30032L 24.399939 67.50032L 9.599939 127.30032ZM 171.899939 244.40032L 189.799939 191.30032L 170.799939 185.00032L 152.999939 238.00032ZM 86.899939 43.20032L 91.899939 31.40032L 73.499939 23.70032L 68.499939 35.40032Z" fill-rule="nonzero"></path></g></g></g><g id="g-root-4.cu_sy_5v0zn1rktn2f-fill" data-item-order="-102601" transform="translate(172.51992797851562, 124.52001953125)"><g id="4.cu_sy_5v0zn1rktn2f-fill" stroke="none" fill="#e9ffb9"><g><path d="M 28.380057 16.780057L 18.280057 25.880057L 28.880057 43.280057L 41.780057 31.680057ZM 28.880057 43.280057L 74.280057 26.080057L 62.780057 8.980057L 18.280057 25.880057ZM 62.780057 8.980057L 7.480057 68.080057L 20.780057 83.180057L 74.280057 26.080057ZM 20.780057 83.180057L 90.980057 32.580057L 77.880057 17.280057L 7.480057 68.080057ZM 77.880057 17.280057L 15.780057 80.280057L 28.080057 96.180057L 90.980057 32.580057ZM 28.080057 96.180057L 102.280057 52.980057L 89.980057 36.980057L 15.780057 80.280057ZM 89.980057 36.980057L 37.780057 89.380057L 50.280057 105.180057L 102.280057 52.980057ZM 50.280057 105.180057L 105.680057 71.480057L 92.280057 56.280057L 37.780057 89.380057ZM 92.280057 56.280057L 58.680057 98.480057L 70.580057 115.680057L 105.680057 71.480057ZM 70.580057 115.680057L 109.580057 102.880057L 92.680057 87.380057L 58.680057 98.480057ZM 92.680057 87.380057L 89.280057 101.680057L 108.680057 106.380057L 109.580057 102.880057Z" fill-rule="nonzero"></path></g></g></g><g id="g-root-3.cu_sy_5v0zn1rktn2g-fill" data-item-order="-102597" transform="translate(172.51992797851562, 339.479736328125)"><g id="3.cu_sy_5v0zn1rktn2g-fill" stroke="none" fill="#c8ffe5"><g><path d="M 15.080057 88.220081L 24.380057 97.120081L 42.080057 86.420081L 28.880057 73.820081ZM 42.080057 86.420081L 28.280057 37.820081L 10.280057 47.920081L 24.380057 97.120081ZM 10.280057 47.920081L 62.880057 104.620081L 78.780057 92.420081L 28.280057 37.820081ZM 78.780057 92.420081L 30.980057 17.520081L 14.980057 29.720081L 62.880057 104.620081ZM 14.980057 29.720081L 78.680057 100.420081L 95.280057 89.020081L 30.980057 17.520081ZM 95.280057 89.020081L 55.880057 11.720081L 39.280057 23.020081L 78.680057 100.420081ZM 39.280057 23.020081L 90.980057 82.220081L 107.380057 70.520081L 55.880057 11.720081ZM 107.380057 70.520081L 72.680057 10.320081L 57.180057 23.420081L 90.980057 82.220081ZM 57.180057 23.420081L 95.580057 55.120081L 113.180057 43.720081L 72.680057 10.320081ZM 113.180057 43.720081L 103.180057 7.720081L 87.080057 24.520081L 95.580057 55.120081ZM 87.080057 24.520081L 99.680057 27.420081L 104.180057 8.020081L 103.180057 7.720081Z" fill-rule="nonzero"></path></g></g></g><g id="g-root-2.cu_sy_1ur5kub1rktnnl-fill" data-item-order="-102593" transform="translate(387.48052978515625, 339.47998046875)"><g id="2.cu_sy_1ur5kub1rktnnl-fill" stroke="none" fill="#e7e1ff"><g><path d="M 7.31947 13.619836L 7.21947 13.919836L 24.91947 29.719836L 27.01947 16.819836ZM 24.91947 29.719836L 50.01947 22.819836L 39.01947 5.119836L 7.21947 13.919836ZM 39.01947 5.119836L 5.61947 42.019836L 18.21947 57.919836L 50.01947 22.819836ZM 18.21947 57.919836L 77.01947 25.619836L 65.11947 9.319836L 5.61947 42.019836ZM 65.11947 9.319836L 12.11947 59.919836L 24.11947 76.119836L 77.01947 25.619836ZM 24.11947 76.119836L 101.71947 31.619836L 89.71947 15.419836L 12.11947 59.919836ZM 89.71947 15.419836L 20.51947 80.319836L 32.71947 96.319836L 101.71947 31.619836ZM 32.71947 96.319836L 108.61947 49.619836L 96.01947 33.919836L 20.51947 80.319836ZM 96.01947 33.919836L 40.31947 91.719836L 51.11947 109.319836L 108.61947 49.619836ZM 51.11947 109.319836L 97.11947 95.019836L 90.81947 76.019836L 40.31947 91.719836ZM 90.81947 76.019836L 78.11947 80.519836L 84.81947 99.319836L 97.11947 95.019836Z" fill-rule="nonzero"></path></g></g></g><g id="g-root-1.cu_sy_1ur5kub1rktnnm-fill" data-item-order="-102589" transform="translate(387.47979736328125, 124.52001953125)"><g id="1.cu_sy_1ur5kub1rktnnm-fill" stroke="none" fill="#ffd9d8"><g><path d="M 2.820203 99.279813L 7.720203 107.779813L 27.420203 101.779813L 20.120203 89.279813ZM 27.420203 101.779813L 24.820203 61.479813L 5.220203 68.979813L 7.720203 107.779813ZM 5.220203 68.979813L 39.820203 112.879813L 56.620203 101.879813L 24.820203 61.479813ZM 56.620203 101.879813L 20.720203 35.579813L 4.620203 47.679813L 39.820203 112.879813ZM 4.620203 47.679813L 64.820203 106.979813L 80.920203 94.779813L 20.720203 35.579813ZM 80.920203 94.779813L 37.720203 15.179813L 21.220203 26.779813L 64.820203 106.979813ZM 21.220203 26.779813L 85.820203 99.179813L 102.120203 87.479813L 37.720203 15.179813ZM 102.120203 87.479813L 56.420203 7.779813L 39.920203 19.379813L 85.820203 99.179813ZM 39.920203 19.379813L 91.320203 80.079813L 109.020203 69.979813L 56.420203 7.779813ZM 109.020203 69.979813L 90.420203 17.679813L 73.720203 30.279813L 91.320203 80.079813ZM 73.720203 30.279813L 91.920203 43.079813L 103.420203 26.679813L 90.420203 17.679813Z" fill-rule="nonzero"></path></g></g></g><g id="g-root-tx__1lw51oj1rktlaj-fill" data-item-order="0" transform="translate(197, 27.999755859375)"><g id="tx__1lw51oj1rktlaj-fill" stroke="none" fill="#484848"><g><text style="font: bold 25px &quot;Shantell Sans&quot;, cursive; white-space: pre;" font-weight="bold" font-size="25px" font-family="'Shantell Sans', cursive"><tspan x="16.5" y="44.33" dominant-baseline="ideographic">通过写作捕捉人生的本质</tspan></text></g></g></g><g id="g-root-tx__93djnn1rks6pu-fill" data-item-order="0" transform="translate(100, 123.999755859375)"><g id="tx__93djnn1rks6pu-fill" stroke="none" fill="#484848"><g><text style="font: bold 20px &quot;Shantell Sans&quot;, cursive; white-space: pre;" font-weight="bold" font-size="20px" font-family="'Shantell Sans', cursive"><tspan x="16" y="35.33" dominant-baseline="ideographic">存在</tspan></text></g></g></g><g id="g-root-tx__1ut139f1rks83o-fill" data-item-order="0" transform="translate(508, 123.999755859375)"><g id="tx__1ut139f1rks83o-fill" stroke="none" fill="#484848"><g><text style="font: bold 20px &quot;Shantell Sans&quot;, cursive; white-space: pre;" font-weight="bold" font-size="20px" font-family="'Shantell Sans', cursive"><tspan x="12" y="35.33" dominant-baseline="ideographic">失去</tspan></text></g></g></g><g id="g-root-tx__18komgz1rks8b1-fill" data-item-order="0" transform="translate(28, 159.999755859375)"><g id="tx__18komgz1rks8b1-fill" stroke="none" fill="#484848"><g><text style="font: bold 11.7px &quot;Shantell Sans&quot;, cursive; white-space: pre;" font-weight="bold" font-size="11.7px" font-family="'Shantell Sans', cursive"><tspan x="22.75" y="29.67" dominant-baseline="ideographic">生活在当下的真实感</tspan></text></g></g></g><g id="g-root-home_18kojb71rktmvg-fill" data-item-order="0" transform="translate(196, 147.999755859375)"></g><g id="g-root-fade_4ik5oj1rl4u80-fill" data-item-order="0" transform="translate(412, 147.999755859375)"></g><g id="g-root-tx__me7kxv1rks8ao-fill" data-item-order="0" transform="translate(508, 159.999755859375)"><g id="tx__me7kxv1rks8ao-fill" stroke="none" fill="#484848"><g><text style="font: bold 11.7px &quot;Shantell Sans&quot;, cursive; white-space: pre;" font-weight="bold" font-size="11.7px" font-family="'Shantell Sans', cursive"><tspan x="12" y="29.67" dominant-baseline="ideographic">意识到人生中不可避免的失去</tspan></text></g></g></g><g id="g-root-ink_mfgfyb1rl7nd0-fill" data-item-order="0" transform="translate(280, 231.999755859375)"></g><g id="g-root-tx__7qjer1rks7ij-fill" data-item-order="0" transform="translate(100, 339.999755859375)"><g id="tx__7qjer1rks7ij-fill" stroke="none" fill="#484848"><g><text style="font: bold 20px &quot;Shantell Sans&quot;, cursive; white-space: pre;" font-weight="bold" font-size="20px" font-family="'Shantell Sans', cursive"><tspan x="16" y="35.33" dominant-baseline="ideographic">写作</tspan></text></g></g></g><g id="g-root-tx__dikkoz1rks93d-fill" data-item-order="0" transform="translate(508, 339.999755859375)"><g id="tx__dikkoz1rks93d-fill" stroke="none" fill="#484848"><g><text style="font: bold 20px &quot;Shantell Sans&quot;, cursive; white-space: pre;" font-weight="bold" font-size="20px" font-family="'Shantell Sans', cursive"><tspan x="12" y="35.33" dominant-baseline="ideographic">记忆</tspan></text></g></g></g><g id="g-root-tx__144v4cj1rks93a-fill" data-item-order="0" transform="translate(16, 375.999755859375)"><g id="tx__144v4cj1rks93a-fill" stroke="none" fill="#484848"><g><text style="font: bold 11.7px &quot;Shantell Sans&quot;, cursive; white-space: pre;" font-weight="bold" font-size="11.7px" font-family="'Shantell Sans', cursive"><tspan x="23.06" y="29.67" dominant-baseline="ideographic">记录思想和经历的方式</tspan></text></g></g></g><g id="g-root-call_8r7n1rkxuz3-fill" data-item-order="0" transform="translate(196, 363.999755859375)"></g><g id="g-root-2_146qgg31rl3gue-fill" data-item-order="0" transform="translate(412, 363.999755859375)"></g><g id="g-root-tx__qu132b1rks7if-fill" data-item-order="0" transform="translate(508, 375.999755859375)"><g id="tx__qu132b1rks7if-fill" stroke="none" fill="#484848"><g><text style="font: bold 11.7px &quot;Shantell Sans&quot;, cursive; white-space: pre;" font-weight="bold" font-size="11.7px" font-family="'Shantell Sans', cursive"><tspan x="12" y="29.67" dominant-baseline="ideographic">记住过去时光的努力</tspan></text></g></g></g><g id="g-root-tf_1hi71z71rks6it-stroke" data-item-order="-345332" transform="translate(-8, -8)"></g><g id="g-root-0.cu_sy_4loj431rktma6-stroke" data-item-order="-102605" transform="translate(209.00006103515625, 159.99951171875)"><g id="0.cu_sy_4loj431rktma6-stroke" fill="none" stroke-linecap="round" stroke-linejoin="round" stroke-miterlimit="4" stroke="#484848" stroke-width="4"><g><path d="M 69.499939 26.30032C 87.799939 16.80032 107.999939 10.60032 129.999939 10.00032C 151.199939 9.50032 171.599939 14.70032 188.499939 25.20032M 234.199939 70.50032C 245.399939 87.40032 250.299939 108.40032 249.999939 130.00032C 249.799939 151.60032 244.699939 172.20032 234.199939 189.50032M 188.499939 234.80032C 170.399939 242.80032 151.199939 251.10032 129.999939 250.00032C 107.999939 248.90032 87.199939 244.10032 69.499939 233.70032M 25.799939 189.50032C 16.299939 171.60032 9.999939 151.60032 9.999939 130.00032C 9.999939 108.40032 15.399939 87.90032 25.799939 70.50032M 69.52 26.333C 87.2784 15.9502 107.9443 10 130 10C 151.2327 10 171.1774 15.5145 188.4801 25.1894M 234.2453 70.5201C 244.2704 88.0525 250 108.3571 250 130C 250 151.6431 244.2703 171.948 234.2449 189.4805M 188.4805 234.8104C 171.1778 244.4854 151.2329 250 130 250C 107.9443 250 87.2784 244.0497 69.5199 233.6669M 25.7551 189.4805C 15.7297 171.948 10 151.6431 10 130C 10 108.3571 15.7296 88.0524 25.7548 70.52"></path></g></g></g><g id="g-root-4.cu_sy_5v0zn1rktn2f-stroke" data-item-order="-102601" transform="translate(172.51992797851562, 124.52001953125)"><g id="4.cu_sy_5v0zn1rktn2f-stroke" fill="none" stroke-linecap="round" stroke-linejoin="round" stroke-miterlimit="4" stroke="#484848" stroke-width="4"><g><path d="M 57.980057 105.980057C 45.780057 106.580057 32.880057 101.780057 24.080057 91.980057C 6.380057 72.180057 4.580057 42.080057 24.080057 24.080057C 33.480057 15.380057 44.980057 10.680057 56.880057 9.980057C 69.480057 9.380057 83.180057 13.580057 91.980057 24.080057C 100.480057 34.180057 106.780057 45.780057 105.980057 57.980057C 104.980057 73.980057 107.880057 90.080057 105.980057 105.980057C 89.980057 105.880057 73.980057 106.580057 57.980057 105.980057M 58.0004 106C 45.716 106.0001 33.4316 101.3138 24.0589 91.9411C 5.3137 73.196 5.3137 42.804 24.0589 24.0589C 42.804 5.3137 73.196 5.3137 91.9411 24.0589C 101.3137 33.4315 106 45.7157 106 58L 106.0004 106L 58.0114 106C 58.0077 106 58.0041 106 58.0004 106Z"></path></g></g></g><g id="g-root-3.cu_sy_5v0zn1rktn2g-stroke" data-item-order="-102597" transform="translate(172.51992797851562, 339.479736328125)"><g id="3.cu_sy_5v0zn1rktn2g-stroke" fill="none" stroke-linecap="round" stroke-linejoin="round" stroke-miterlimit="4" stroke="#484848" stroke-width="4"><g><path d="M 105.980057 58.020081C 104.480057 70.220081 102.180057 83.520081 91.980057 91.920081C 71.380057 108.720081 42.980057 110.520081 24.080057 91.920081C 5.180057 73.420081 6.380057 43.820081 24.080057 24.020081C 32.880057 14.220081 45.680057 9.620081 57.980057 10.020081C 73.980057 10.420081 89.980057 10.120081 105.980057 10.020081C 107.180057 25.920081 104.980057 42.020081 105.980057 58.020081M 106 58C 106.0001 70.2844 101.3138 82.5688 91.9411 91.9415C 73.196 110.6867 42.804 110.6867 24.0589 91.9415C 5.3137 73.1964 5.3137 42.8044 24.0589 24.0593C 33.4315 14.6867 45.7157 10.0004 58 10.0004L 106 10L 106 57.989C 106 57.9927 106 57.9963 106 58Z"></path></g></g></g><g id="g-root-2.cu_sy_1ur5kub1rktnnl-stroke" data-item-order="-102593" transform="translate(387.48052978515625, 339.47998046875)"><g id="2.cu_sy_1ur5kub1rktnnl-stroke" fill="none" stroke-linecap="round" stroke-linejoin="round" stroke-miterlimit="4" stroke="#484848" stroke-width="4"><g><path d="M 10.01947 58.019836C 9.91947 70.319836 15.01947 82.319836 24.01947 91.919836C 42.21947 111.319836 73.51947 111.019836 91.91947 91.919836C 101.21947 82.319836 105.01947 70.119836 106.01947 57.819836C 107.01947 45.619836 100.51947 34.019836 91.91947 24.019836C 83.31947 14.019836 70.31947 10.319836 58.01947 10.019836C 42.01947 9.619836 26.01947 10.719836 10.01947 10.019836C 11.91947 25.919836 11.01947 42.019836 10.01947 58.019836M 10 58C 9.9999 70.2844 14.6862 82.5688 24.0589 91.9415C 42.804 110.6867 73.1959 110.6867 91.9411 91.9415C 110.6863 73.1964 110.6863 42.8044 91.9411 24.0593C 82.5685 14.6867 70.2843 10.0004 58 10.0004L 10 10L 10 57.989C 10 57.9927 10 57.9963 10 58Z"></path></g></g></g><g id="g-root-1.cu_sy_1ur5kub1rktnnm-stroke" data-item-order="-102589" transform="translate(387.47979736328125, 124.52001953125)"><g id="1.cu_sy_1ur5kub1rktnnm-stroke" fill="none" stroke-linecap="round" stroke-linejoin="round" stroke-miterlimit="4" stroke="#484848" stroke-width="4"><g><path d="M 58.020203 105.979813C 70.320203 105.979813 82.220203 100.979813 91.920203 91.979813C 111.320203 73.879813 111.120203 42.379813 91.920203 24.079813C 72.720203 5.779813 42.020203 4.579813 24.020203 24.079813C 15.120203 33.779813 10.820203 45.779813 10.020203 57.979813C 9.020203 73.979813 8.920203 90.079813 10.020203 105.979813C 26.020203 105.479813 42.120203 104.079813 58.020203 105.979813M 58 106C 70.2844 106.0001 82.5688 101.3138 91.9415 91.9411C 110.6867 73.196 110.6867 42.804 91.9415 24.0589C 73.1964 5.3137 42.8044 5.3137 24.0593 24.0589C 14.6867 33.4315 10.0004 45.7157 10.0004 58L 10 106L 57.989 106C 57.9927 106 57.9963 106 58 106Z"></path></g></g></g><g id="g-root-tx__1lw51oj1rktlaj-stroke" data-item-order="0" transform="translate(197, 27.999755859375)"></g><g id="g-root-tx__93djnn1rks6pu-stroke" data-item-order="0" transform="translate(100, 123.999755859375)"></g><g id="g-root-tx__1ut139f1rks83o-stroke" data-item-order="0" transform="translate(508, 123.999755859375)"></g><g id="g-root-tx__18komgz1rks8b1-stroke" data-item-order="0" transform="translate(28, 159.999755859375)"></g><g id="g-root-home_18kojb71rktmvg-stroke" data-item-order="0" transform="translate(196, 147.999755859375)"><g id="home_18kojb71rktmvg-stroke" fill="none" stroke-linecap="round" stroke-linejoin="round" stroke-miterlimit="4" stroke="#484848" stroke-width="2"><g><path d="M 35 42.599998C 35.799999 46.599998 35 50.799999 35 55C 35 56.200001 36 57.200001 37 57C 41.599998 55.799999 46.400002 57.599998 51 57C 52 56.799999 53 56 53 55C 53 50.799999 53.200001 46.799999 53 42.599998M 10 10M 31 46C 35.599998 43.799999 38.599998 39 42.799999 36C 43.599998 35.599998 44.400002 35.599998 45.200001 36C 49.799999 38.400002 53.200001 42.400002 57 46M 47 57C 45 56.799999 42.799999 57.799999 41 57C 41.799999 55.200001 41.200001 53 41 51C 40.799999 49.400002 42.400002 47.599998 44 48C 45.599998 48.400002 46.799999 49.400002 47 51C 47.400002 53 46.400002 55 47 57M 16.6 19.6C 16.6 24.200001 20.4 29.200001 25 28C 29.6 26.799999 34.799999 24 33.599998 19.6C 32.200001 15 29.6 12.2 25 11C 20.4 9.8 15.6 14.8 16.6 19.6M 27 45C 22 43 16 43.200001 11 45C 10.8 39.200001 14.4 32.599998 20.200001 31.799999C 26 31 33.599998 30.6 35.799999 36M 35 42.616001L 35 55C 35 56.104568 35.895432 57 37 57L 51 57C 52.104568 57 53 56.104568 53 55L 53 42.616001M 10 10M 31 46L 42.708 36.094002C 43.453732 35.462898 44.546268 35.462898 45.292 36.094002L 57 46M 47 57L 41 57L 41 51C 41 49.343147 42.343147 48 44 48C 45.656857 48 47 49.343147 47 51ZM 16.5 19.5C 16.5 24.19442 20.30558 28 25 28C 29.69442 28 33.5 24.19442 33.5 19.5C 33.5 14.80558 29.69442 11 25 11C 20.30558 11 16.5 14.80558 16.5 19.5ZM 27 45L 11 45C 10.999902 39.114559 14.680733 33.857452 20.211155 31.844276C 25.741575 29.831099 31.940599 31.491751 35.723999 36"></path></g></g></g><g id="g-root-fade_4ik5oj1rl4u80-stroke" data-item-order="0" transform="translate(412, 147.999755859375)"><g id="fade_4ik5oj1rl4u80-stroke" fill="none" stroke-linecap="round" stroke-linejoin="round" stroke-miterlimit="4" stroke="#484848" stroke-width="2"><g><path d="M 12.8 11C 15.6 11.4 18.200001 11 20.799999 11C 20.799999 11 22.799999 11 22.799999 13C 23.6 26.799999 23.4 41 22.799999 55C 22.799999 55 22.799999 56.200001 20.799999 57C 18.4 57.799999 15.6 57 12.8 57C 12.8 57 10.8 57 10.8 55C 11.4 41 11.8 26.799999 10.8 13C 10.8 13 11 11.4 12.8 11M 29.799999 11C 32.400002 10.4 35.200001 10.4 37.799999 11C 37.799999 11 39.200001 11 39.799999 13C 45.200001 25.799999 37.599998 41.200001 39.799999 55C 39.799999 55 39.799999 57 37.799999 57C 35.200001 56.799999 32.400002 57.799999 29.799999 57C 29.799999 57 27.799999 57 27.799999 55C 28.4 41 31.799999 26.4 27.799999 13C 27.799999 13 27.799999 10.8 29.799999 11M 46.799999 11C 49.400002 11.8 52.200001 10.2 54.799999 11C 54.799999 11 57.599998 11 56.799999 13C 52.400002 26.200001 56.599998 41 56.799999 55C 56.799999 55 56.799999 56.400002 54.799999 57C 52.200001 57.599998 49.400002 56 46.799999 57C 46.799999 57 44.400002 56.799999 44.799999 55C 48.400002 41.400002 43 26.799999 44.799999 13C 44.799999 13 45 10.8 46.799999 11M 27.799999 40C 32.200001 36.400002 35.799999 31.799999 39.799999 28M 10.8 45.400002C 15 41.599998 20.6 38.599998 22.799999 33.400002M 11.2 56C 13.4 51 19.6 48.799999 22.799999 44.400002M 10.8 34.400002C 14.2 29.799999 19.4 26.799999 22.799999 22.4M 10.8 23.4C 15.2 20 17.799999 14.6 22.6 11.8M 27.799999 54C 32.200001 50.200001 36.200001 46.200001 39.799999 42M 27.799999 26C 31.200001 21.4 36.599998 18.4 39.799999 14M 12.884 10.91L 20.883999 10.91C 20.883999 10.91 22.883999 10.91 22.883999 12.91L 22.883999 54.91C 22.883999 54.91 22.883999 56.91 20.883999 56.91L 12.884 56.91C 12.884 56.91 10.884 56.91 10.884 54.91L 10.884 12.91C 10.884 12.91 10.884 10.91 12.884 10.91M 29.884001 10.91L 37.884003 10.91C 37.884003 10.91 39.884003 10.91 39.884003 12.91L 39.884003 54.91C 39.884003 54.91 39.884003 56.91 37.884003 56.91L 29.884001 56.91C 29.884001 56.91 27.884001 56.91 27.884001 54.91L 27.884001 12.91C 27.884001 12.91 27.884001 10.91 29.884001 10.91M 46.883999 10.91L 54.883999 10.91C 54.883999 10.91 56.883999 10.91 56.883999 12.91L 56.883999 54.91C 56.883999 54.91 56.883999 56.91 54.883999 56.91L 46.883999 56.91C 46.883999 56.91 44.883999 56.91 44.883999 54.91L 44.883999 12.91C 44.883999 12.91 44.883999 10.91 46.883999 10.91M 27.886 39.91L 39.884003 27.91M 10.886 45.41L 22.886 33.41M 11.243999 56.051998L 22.886 44.41M 10.886 34.41L 22.886 22.41M 10.886 23.41L 22.526001 11.77M 27.886 53.91L 39.884003 41.91M 27.886 25.91L 39.884003 13.91"></path></g></g></g><g id="g-root-tx__me7kxv1rks8ao-stroke" data-item-order="0" transform="translate(508, 159.999755859375)"></g><g id="g-root-ink_mfgfyb1rl7nd0-stroke" data-item-order="0" transform="translate(280, 231.999755859375)"><g id="ink_mfgfyb1rl7nd0-stroke" fill="none" stroke-linecap="round" stroke-linejoin="round" stroke-miterlimit="4" stroke="#484848" stroke-width="2"><g><path d="M 43.599998 84C 44 81.199997 44 78.800003 43.599998 76C 44.799999 76.400002 46.400002 75.599998 47.599998 76C 47.599998 73.199997 48.400002 70.400002 47.599998 68C 41.200001 66.400002 34.400002 68.400002 27.6 68C 27.200001 70.800003 27.200001 73.199997 27.6 76C 29.200001 76 30.4 75.599998 31.6 76C 30.799999 78.400002 32.400002 81.599998 31.6 84C 21.200001 84.400002 12.8 89.599998 12.4 99.199997C 12.4 100.400002 12.8 101.199997 13.2 102.400002C 13.6 103.599998 15.2 103.599998 16.4 104C 30.4 106.800003 46 99.199997 59.200001 104C 60.400002 104.400002 61.599998 103.599998 62.400002 102.400002C 63.200001 101.599998 63.599998 100.400002 63.200001 99.199997C 61.599998 90 54.400002 84.800003 43.599998 84M 74.400002 40C 80.800003 40.799999 87.599998 38 93.599998 40M 66.400002 48C 73.199997 46.400002 80.800003 48.799999 87.599998 48C 76 57.599998 61.599998 60.400002 59.200001 55.200001C 56.400002 49.200001 60.799999 37.599998 71.199997 24.4C 75.199997 18.799999 82.400002 16.4 87.599998 12C 86.400002 16.799999 86 22.4 87.599998 26.799999M 82.400002 32C 88 31.6 94 32.400002 99.599998 32C 106.400002 25.6 106 15.6 101.199997 13.2C 84.400002 28.4 69.199997 45.599998 52.799999 61.599998M 43.675999 84L 43.675999 76L 47.675999 76L 47.675999 68L 27.676001 68L 27.676001 76L 31.676001 76L 31.676001 84C 21.200001 85.367996 14.688 89.952003 12.444 99.040001C 12.148785 100.234116 12.419394 101.497658 13.177769 102.466125C 13.936142 103.434593 15.097934 104.000282 16.327999 104L 59.299999 104C 60.53587 104.000298 61.702477 103.429298 62.460411 102.453133C 63.218349 101.476967 63.482494 100.205261 63.175999 99.008003C 60.860001 89.944 54.119999 85.367996 43.675999 84ZM 74.463997 40L 93.676003 40M 66.464005 48L 87.664001 48C 76.463997 58.172001 63.264 59.276001 59.18 55.236C 54.380001 50.568001 59.284 36.124001 71.043999 24.372C 75.933212 19.433828 81.540497 15.262749 87.676003 12L 87.676003 26.799999M 82.424004 32L 99.624001 32C 104.227997 23.968 105.056 16.716 101.356003 13.08L 52.771999 61.66"></path></g></g></g><g id="g-root-tx__7qjer1rks7ij-stroke" data-item-order="0" transform="translate(100, 339.999755859375)"></g><g id="g-root-tx__dikkoz1rks93d-stroke" data-item-order="0" transform="translate(508, 339.999755859375)"></g><g id="g-root-tx__144v4cj1rks93a-stroke" data-item-order="0" transform="translate(16, 375.999755859375)"></g><g id="g-root-call_8r7n1rkxuz3-stroke" data-item-order="0" transform="translate(196, 363.999755859375)"><g id="call_8r7n1rkxuz3-stroke" fill="none" stroke-linecap="round" stroke-linejoin="round" stroke-miterlimit="4" stroke="#484848" stroke-width="2"><g><path d="M 28 46.599998C 28.6 48.799999 26.4 50.599998 24.6 52C 23.4 53 21.799999 54.200001 20 54.200001C 22.6 48 22.4 40 20 33.599998C 19.200001 31.4 21.200001 28.799999 23.4 28.200001C 25 27.799999 26.6 26.799999 28 26C 28.6 32.799999 27.6 39.799999 28 46.599998M 28 26C 30.200001 25.6 32.400002 24.4 34 23M 20 54.200001C 18.4 55.200001 16.6 55.599998 15.2 56.599998C 14.6 57.400002 13.2 57.200001 12.4 56.599998C 11.6 56.200001 11.2 55.200001 11 54.200001C 11 52.599998 12.4 50.799999 14 51.200001M 56.799999 17.6C 54.200001 16 52 13.8 50.400002 11.2C 50.200001 11 49.799999 11 49.400002 11C 47 11.2 44.599998 12 42.200001 13C 41 13.6 39.599998 14.4 39.599998 15.8C 39.200001 21.4 36.599998 26.6 35 31.799999C 34.799999 32.200001 35 32.400002 35.200001 32.799999C 35.400002 33 35.799999 33 36.200001 33C 41.799999 33.400002 46.799999 29.200001 52.200001 28.4C 53.599998 28.200001 54.599998 27 55 25.799999C 55.599998 23.4 56.799999 21 57 18.6C 57 18.200001 57 17.799999 56.799999 17.6M 35.200001 32.799999C 39.400002 28.799999 43.799999 25.200001 47.200001 20.799999M 28 46.576C 28.000681 48.848991 26.716888 50.927216 24.684 51.944L 20 54.284L 20 33.599998C 20.003105 31.330614 21.286331 29.257172 23.316 28.242001L 28 25.9ZM 28 25.9L 34 22.9M 20 54.284L 15.21 56.683998C 14.344249 57.154369 13.296719 57.143135 12.441257 56.654297C 11.585796 56.165462 11.044292 55.268681 11.01 54.284C 11.01 52.627148 12.353146 51.284 14.01 51.284M 56.708 17.532L 50.467999 11.292C 50.211079 11.035288 49.835171 10.938057 49.486 11.038L 42.285999 13.094C 40.956673 13.473578 39.91758 14.512671 39.538002 15.842L 35 31.774C 34.900391 32.123108 34.997807 32.498779 35.254517 32.755486C 35.511223 33.012192 35.886894 33.109612 36.236 33.010002L 52.167999 28.458C 53.49733 28.078421 54.536423 27.039328 54.916 25.709999L 56.972 18.51C 57.067844 18.160248 56.966824 17.786015 56.708 17.532ZM 35.243999 32.756001L 47.223999 20.776001"></path></g></g></g><g id="g-root-2_146qgg31rl3gue-stroke" data-item-order="0" transform="translate(412, 363.999755859375)"><g id="2_146qgg31rl3gue-stroke" fill="none" stroke-linecap="round" stroke-linejoin="round" stroke-miterlimit="4" stroke="#484848" stroke-width="2"><g><path d="M 19.4 56.599998C 18.799999 52.400002 19.4 48.200001 19.4 44C 17 41 15.2 38 13.8 34.400002C 12.4 30.799999 13 26.799999 14.6 23.4C 16.4 20 19 17.6 21.6 14.8C 24 12 28.4 11.6 32.200001 11.6C 46.400002 11.2 49.200001 23.4 54.599998 36.400002C 54.599998 36.599998 54.599998 37 54.599998 37.200001C 54.799999 37.400002 54.400002 37.599998 54.400002 37.799999C 54.200001 38 54 38.200001 53.799999 38.400002C 53.599998 38.400002 53.400002 38.400002 53.200001 38.599998C 52 38.799999 50.599998 38.599998 49.400002 38.599998C 49.599998 40.599998 49.599998 42.599998 49.400002 44.599998C 49.200001 46 48.599998 47.599998 47.599998 48.799999C 46.599998 50 45 50.400002 43.400002 50.599998C 42.400002 50.599998 41.400002 50.400002 40.400002 50.599998C 40.599998 52.400002 40.599998 54.599998 40.400002 56.599998M 18.6 29.799999C 19 31 19.200001 32 20.200001 32.599998M 27.4 17.799999C 26.799999 18 26.200001 18.4 25.6 18.6M 25 33.200001C 25.799999 32.599998 26.799999 32.200001 27.799999 32M 21.799999 22.200001C 21.200001 23 20.799999 24.200001 20 25M 27.4 17.799999C 33 16.799999 40 16 42 21C 43.200001 23.4 42.799999 26.799999 40.200001 27C 37.400002 27.200001 35 29.4 32.200001 30.200001M 19.350719 56.5L 19.350719 43.970001C 16.587181 41.409798 14.65988 38.075798 13.82048 34.4034C 12.9811 30.731001 13.26862 26.89068 14.64554 23.384159C 16.02244 19.87764 18.424721 16.8678 21.538681 14.7477C 24.652641 12.6276 28.33354 11.495768 32.1008 11.500012C 46.378799 11.500012 49.4608 23.25602 54.5508 36.459999C 54.638 36.687401 54.668598 36.9324 54.639999 37.174202C 54.611401 37.416 54.524601 37.647202 54.386799 37.848C 54.249001 38.048599 54.064602 38.212799 53.849201 38.326401C 53.633801 38.440002 53.394199 38.499599 53.150799 38.5L 49.3508 38.5L 49.3508 44.5C 49.3508 46.0914 48.718601 47.617401 47.593399 48.742599C 46.468201 49.867802 44.942001 50.5 43.3508 50.5L 40.3508 50.5L 40.3508 56.5M 18.68784 29.768761C 18.674019 31.0082 19.2491 31.964001 20.122059 32.566399M 27.40608 17.70532C 26.75878 17.96496 26.143 18.269619 25.56094 18.61426M 24.9466 33.119598L 27.836399 32.024799M 21.761719 22.11552C 21.07836 23.0606 20.40336 24.0065 19.988121 25.09062M 27.40626 17.70516C 32.641998 15.605101 38.422401 17.06032 42.073799 20.928001C 43.969398 22.935959 42.6716 25.951641 40.108601 26.979639C 37.535599 28.0117 34.871201 29.080379 32.276398 30.121201"></path></g></g></g><g id="g-root-tx__qu132b1rks7if-stroke" data-item-order="0" transform="translate(508, 375.999755859375)"></g></g></g></svg>