<?xml version="1.0" encoding="utf-8" standalone="yes"?>
<!DOCTYPE svg PUBLIC "-//W3C//DTD SVG 1.1//EN" "http://www.w3.org/Graphics/SVG/1.1/DTD/svg11.dtd">
<svg width="747" height="602" viewBox="0 0 747 602" style="fill:none;stroke:none;fill-rule:evenodd;clip-rule:evenodd;stroke-linecap:round;stroke-linejoin:round;stroke-miterlimit:1.5;" version="1.1" xmlns="http://www.w3.org/2000/svg" xmlns:xlink="http://www.w3.org/1999/xlink"><style id="fontImports">@import url("https://fonts.googleapis.com/css2?family=Roboto:wght@400;700&amp;display=block");</style><rect id="" x="0" y="0" width="747" height="602" style="fill: #ffffff;"></rect><g id="items" style="isolation: isolate"><g id="blend" style="mix-blend-mode: normal"><g id="g-root-tf_91i7kj1q76vid-fill" data-item-order="-447000" transform="translate(-9, -9)"><g id="tf_91i7kj1q76vid-fill" stroke="none" fill="#ffffff"><g><path d="M 10 10L 755 10L 755 610L 10 610Z"></path></g></g></g><g id="g-root-0.cu_sy_145holv1q6vnkc-fill" data-item-order="-129086" transform="translate(238.999755859375, 128.99951171875)"></g><g id="g-root-3.cu_sy_zpo6hf1q6vocl-fill" data-item-order="-129082" transform="translate(170.563232421875, 122.39794921875)"></g><g id="g-root-2.cu_sy_zpo6hf1q6vocm-fill" data-item-order="-129078" transform="translate(309.000244140625, 332.5303955078125)"></g><g id="g-root-1.cu_sy_qu168j1q6vp5b-fill" data-item-order="-129074" transform="translate(438, 122.39794921875)"></g><g id="g-root-tx__v9uocz1q6vp4w-fill" data-item-order="0" transform="translate(268, 39)"><g id="tx__v9uocz1q6vp4w-fill" stroke="none" fill="#484848"><g><text style="font: bold 20px Roboto, sans-serif; white-space: pre;" font-weight="bold" font-size="20px" font-family="Roboto, sans-serif"><tspan x="12" y="34" dominant-baseline="ideographic">通过写作实现认知反思</tspan></text></g></g></g><g id="g-root-tx__qs5qz71q76waz-fill" data-item-order="0" transform="translate(63, 123)"><g id="tx__qs5qz71q76waz-fill" stroke="none" fill="#92bd39"><g><text style="font: bold 20px Roboto, sans-serif; white-space: pre;" font-weight="bold" font-size="20px" font-family="Roboto, sans-serif"><tspan x="12" y="34" dominant-baseline="ideographic">个人认知</tspan></text></g></g></g><g id="g-root-tx__mcc8ur1q76x38-fill" data-item-order="0" transform="translate(568, 123)"><g id="tx__mcc8ur1q76x38-fill" stroke="none" fill="#7f64ea"><g><text style="font: bold 20px Roboto, sans-serif; white-space: pre;" font-weight="bold" font-size="20px" font-family="Roboto, sans-serif"><tspan x="12" y="34" dominant-baseline="ideographic">元视角</tspan></text></g></g></g><g id="g-root-tx__1hegamr1q76wav-fill" data-item-order="0" transform="translate(15, 159)"><g id="tx__1hegamr1q76wav-fill" stroke="none" fill="#484848"><g><text style="font: bold 11.7px Roboto, sans-serif; white-space: pre;" font-weight="bold" font-size="11.7px" font-family="Roboto, sans-serif"><tspan x="23.06" y="29" dominant-baseline="ideographic">个人经验和洞察的集合</tspan></text></g></g></g><g id="g-root-idea_hz0n2r1q6vnk1-fill" data-item-order="0" transform="translate(195, 148.4140625)"></g><g id="g-root-tele_zkodsj1q741z4-fill" data-item-order="0" transform="translate(472, 148.4140625)"></g><g id="g-root-tx__143m9cj1q76uq1-fill" data-item-order="0" transform="translate(568, 159)"><g id="tx__143m9cj1q76uq1-fill" stroke="none" fill="#484848"><g><text style="font: bold 11.7px Roboto, sans-serif; white-space: pre;" font-weight="bold" font-size="11.7px" font-family="Roboto, sans-serif"><tspan x="12" y="29" dominant-baseline="ideographic">观察和理解更高层次的模式</tspan></text></g></g></g><g id="g-root-symm_8wievn1q76vbh-fill" data-item-order="0" transform="translate(309, 201)"></g><g id="g-root-1_18itadv1q75ix6-fill" data-item-order="0" transform="translate(334, 375)"></g><g id="g-root-tx__znsr831q76via-fill" data-item-order="0" transform="translate(315, 483)"><g id="tx__znsr831q76via-fill" stroke="none" fill="#3cc583"><g><text style="font: bold 20px Roboto, sans-serif; white-space: pre;" font-weight="bold" font-size="20px" font-family="Roboto, sans-serif"><tspan x="12" y="34" dominant-baseline="ideographic">写作过程</tspan></text></g></g></g><g id="g-root-tx__143m9cj1q76uq0-fill" data-item-order="0" transform="translate(297, 519)"><g id="tx__143m9cj1q76uq0-fill" stroke="none" fill="#484848"><g><text style="font: bold 11.7px Roboto, sans-serif; white-space: pre;" font-weight="bold" font-size="11.7px" font-family="Roboto, sans-serif"><tspan x="17.38" y="29" dominant-baseline="ideographic">传播和分析个人思想</tspan></text></g></g></g><g id="g-root-tf_91i7kj1q76vid-stroke" data-item-order="-447000" transform="translate(-9, -9)"></g><g id="g-root-0.cu_sy_145holv1q6vnkc-stroke" data-item-order="-129086" transform="translate(238.999755859375, 128.99951171875)"><g id="0.cu_sy_145holv1q6vnkc-stroke" fill="none" stroke-linecap="round" stroke-linejoin="round" stroke-miterlimit="4" stroke="#808080" stroke-width="2"><g><path d="M 161.337 245.8671C 212.4141 232.0866 250 185.4326 250 130C 250 117.6953 248.148 105.8231 244.7076 94.647M 219.4653 50.0235C 197.4918 25.4599 165.5513 10 130 10C 94.1819 10 62.0291 25.6927 40.0418 50.5779M 15.3498 94.4612C 11.8726 105.6915 10 117.627 10 130C 10 184.8648 46.8199 231.1299 97.0977 245.4333"></path></g></g></g><g id="g-root-3.cu_sy_zpo6hf1q6vocl-stroke" data-item-order="-129082" transform="translate(170.563232421875, 122.39794921875)"><g id="3.cu_sy_zpo6hf1q6vocl-stroke" fill="none" stroke-linecap="round" stroke-linejoin="round" stroke-miterlimit="4" stroke="#92bd39" stroke-width="2"><g><path d="M 104.373615 45.589023C 101.195215 33.722823 93.490115 23.069223 82.011515 16.440823C 59.054515 3.184023 29.697515 11.047623 16.440815 34.004523C 3.184015 56.961523 11.047615 86.318523 34.004515 99.575223C 45.483015 106.203623 58.561515 107.551923 70.427515 104.373523L 116.793015 91.954423L 104.376415 45.599623C 104.375515 45.596023 104.374515 45.592523 104.373615 45.589023Z"></path></g></g></g><g id="g-root-2.cu_sy_zpo6hf1q6vocm-stroke" data-item-order="-129078" transform="translate(309.000244140625, 332.5303955078125)"><g id="2.cu_sy_zpo6hf1q6vocm-stroke" fill="none" stroke-linecap="round" stroke-linejoin="round" stroke-miterlimit="4" stroke="#3cc583" stroke-width="2"><g><path d="M 91.9408 43.9411C 100.6273 52.6274 106 64.6276 106 77.8825C 106 104.3922 84.5097 125.8825 58 125.8825C 31.4903 125.8825 10 104.3922 10 77.8825C 10 64.6277 15.3726 52.6277 24.0589 43.9414L 57.9997 10L 91.9331 43.9333C 91.9356 43.9359 91.9382 43.9385 91.9408 43.9411Z"></path></g></g></g><g id="g-root-1.cu_sy_qu168j1q6vp5b-stroke" data-item-order="-129074" transform="translate(438, 122.39794921875)"><g id="1.cu_sy_qu168j1q6vp5b-stroke" fill="none" stroke-linecap="round" stroke-linejoin="round" stroke-miterlimit="4" stroke="#7f64ea" stroke-width="2"><g><path d="M 22.4233 45.585077C 25.6027 33.719177 33.3087 23.066277 44.7879 16.438777C 67.7459 3.183977 97.1022 11.049977 110.3571 34.007977C 123.6119 56.966077 115.7459 86.322377 92.7878 99.577177C 81.3088 106.204677 68.2302 107.551877 56.3645 104.372477L 10 91.949477L 22.4205 45.595677C 22.4214 45.592177 22.4224 45.588577 22.4233 45.585077Z"></path></g></g></g><g id="g-root-tx__v9uocz1q6vp4w-stroke" data-item-order="0" transform="translate(268, 39)"></g><g id="g-root-tx__qs5qz71q76waz-stroke" data-item-order="0" transform="translate(63, 123)"></g><g id="g-root-tx__mcc8ur1q76x38-stroke" data-item-order="0" transform="translate(568, 123)"></g><g id="g-root-tx__1hegamr1q76wav-stroke" data-item-order="0" transform="translate(15, 159)"></g><g id="g-root-idea_hz0n2r1q6vnk1-stroke" data-item-order="0" transform="translate(195, 148.4140625)"><g id="idea_hz0n2r1q6vnk1-stroke" fill="none" stroke-linecap="round" stroke-linejoin="round" stroke-miterlimit="4" stroke="#92bd39" stroke-width="2"><g><path d="M 56 57L 56 55C 56.024189 53.420605 55.27803 51.928295 54.000004 51.000004C 51.330002 48.962002 45.459999 45 34 45C 22.540001 45 16.67 48.962002 14 51C 12.721972 51.928295 11.975817 53.420605 12 55.000004L 12 57M 34 57L 44.644001 46.355999M 34 57L 23.355999 46.355999M 37 54L 34 45L 31 54M 21.332001 47.001999L 19 54L 25 57M 46.667999 47.001999L 49 54L 43 57M 38 41L 30 41M 34 11L 34 13M 50 25L 48 25M 48 15L 46 17M 18 25L 20 25M 20 15L 22 17M 48 35L 46 33M 20 35L 22 33M 43 26C 43.018871 21.556046 39.791313 17.763567 35.401527 17.071566C 31.01174 16.379564 26.774008 18.995224 25.424856 23.229473C 24.075705 27.463722 26.019062 32.048851 30 34.024002L 30 36C 30 36.552284 30.447716 37 31 37L 37 37C 37.552284 37 38 36.552284 38 36L 38 34.024002C 41.054688 32.515297 42.9916 29.406937 43 26Z"></path></g></g></g><g id="g-root-tele_zkodsj1q741z4-stroke" data-item-order="0" transform="translate(472, 148.4140625)"><g id="tele_zkodsj1q741z4-stroke" fill="none" stroke-linecap="round" stroke-linejoin="round" stroke-miterlimit="4" stroke="#7f64ea" stroke-width="2"><g><path d="M 23.714287 37.428574L 13.428572 47.714287M 20.285715 54.57143L 30.571428 44.285713M 22 35.714287L 32.285713 46L 56.285713 25.428572L 42.57143 11.714286L 22 35.714287ZM 11.714286 46L 22 56.285713"></path></g></g></g><g id="g-root-tx__143m9cj1q76uq1-stroke" data-item-order="0" transform="translate(568, 159)"></g><g id="g-root-symm_8wievn1q76vbh-stroke" data-item-order="0" transform="translate(309, 201)"><g id="symm_8wievn1q76vbh-stroke" fill="none" stroke-linecap="round" stroke-linejoin="round" stroke-miterlimit="4" stroke="#4e88e7" stroke-width="2"><g><path d="M 10 10M 58.004002 101.729599L 58.004002 14.27M 10 10M 69.941605 37.3372L 75.632401 31.909241C 81.972 25.8622 92.040802 26.197241 97.964798 32.652359L 97.964798 32.652359C 103.533997 38.721161 103.445999 48.068199 97.763199 54.0312L 87.1772 65.139198L 92.225601 70.939606C 96.372398 75.704002 96.034798 82.888397 91.458801 87.242798L 91.458801 87.242798C 86.851601 91.627197 79.599602 91.573997 75.057198 87.122398L 69.941605 82.1092M 46.066399 37.3372L 40.375603 31.909241C 34.035721 25.8622 23.966961 26.197241 18.043121 32.652359L 18.043121 32.652359C 12.473768 38.721161 12.561784 48.068199 18.24444 54.0312L 28.830561 65.139198L 23.78224 70.939606C 19.635319 75.704002 19.9732 82.888397 24.54896 87.242798L 24.54896 87.242798C 29.15616 91.627197 36.40836 91.573997 40.95076 87.122398L 46.066399 82.1092"></path></g></g></g><g id="g-root-1_18itadv1q75ix6-stroke" data-item-order="0" transform="translate(334, 375)"><g id="1_18itadv1q75ix6-stroke" fill="none" stroke-linecap="round" stroke-linejoin="round" stroke-miterlimit="4" stroke="#3cc583" stroke-width="2"><g><path d="M 25.142 51.344002C 23.970501 52.515148 22.071499 52.515148 20.900002 51.344002L 16.656 47.099998C 15.484854 45.928501 15.484854 44.029499 16.656 42.858002L 46.757999 12.757999C 49.112274 10.48416 52.854515 10.516676 55.168919 12.831081C 57.483326 15.145487 57.515842 18.887728 55.242001 21.242001ZM 46.695999 12.818L 46.049999 12.172C 44.487999 10.610473 41.956001 10.610473 40.393997 12.172L 32.615997 19.950001M 38.271999 21.242001L 46.757999 29.728001M 12.414 48.514L 19.486 55.585999M 15.95 52.049999L 11 57"></path></g></g></g><g id="g-root-tx__znsr831q76via-stroke" data-item-order="0" transform="translate(315, 483)"></g><g id="g-root-tx__143m9cj1q76uq0-stroke" data-item-order="0" transform="translate(297, 519)"></g></g></g></svg>